<?xml version="1.0" standalone="no"?>
<!DOCTYPE svg PUBLIC "-//W3C//DTD SVG 20010904//EN"
 "http://www.w3.org/TR/2001/REC-SVG-20010904/DTD/svg10.dtd">
<svg version="1.0" xmlns="http://www.w3.org/2000/svg"
 width="1280.000000pt" height="851.000000pt" viewBox="0 0 1280.000000 851.000000"
 preserveAspectRatio="xMidYMid meet">

<g transform="translate(0.000000,851.000000) scale(0.100000,-0.100000)"
fill="#000000" stroke="none">
<path d="M9990 8499 c-13 -8 -13 -10 0 -19 13 -8 13 -11 1 -19 -11 -7 -10 -12
6 -28 16 -16 23 -18 36 -8 19 13 23 35 7 35 -5 0 -10 -7 -10 -15 0 -8 -4 -15
-10 -15 -5 0 -10 11 -10 23 0 20 5 24 30 24 28 0 30 -3 30 -35 0 -20 3 -33 6
-29 4 3 6 21 6 39 0 56 -2 64 -10 52 -8 -12 -54 -14 -62 -3 -3 5 -12 4 -20 -2z"/>
<path d="M10140 8499 c0 -5 5 -7 10 -4 6 3 10 0 10 -8 0 -10 -7 -13 -20 -10
-21 6 -29 -20 -10 -32 6 -3 10 -22 10 -41 0 -19 5 -34 10 -34 6 0 10 -7 10
-16 0 -11 6 -14 20 -9 16 5 19 3 13 -11 -5 -14 -2 -16 15 -12 15 4 19 2 15 -8
-3 -8 -1 -14 5 -14 6 0 12 6 15 13 2 6 8 8 13 4 5 -4 2 -12 -5 -16 -16 -11 -6
-31 16 -31 13 0 13 -3 3 -15 -17 -21 -30 -19 -30 5 0 22 -7 25 -28 11 -11 -7
-10 -16 7 -48 21 -43 36 -49 133 -59 38 -4 47 -2 52 13 3 10 4 0 2 -22 -2 -22
-1 -32 1 -22 7 27 26 20 21 -8 -4 -17 -1 -25 8 -25 8 0 14 9 14 21 0 11 5 17
10 14 6 -4 10 -12 9 -18 -3 -27 2 -37 20 -37 30 0 34 -17 6 -22 -15 -3 -26 0
-29 9 -4 11 -10 11 -26 3 -16 -9 -20 -8 -20 5 0 8 -4 15 -10 15 -14 0 -12 -42
4 -62 14 -19 36 -24 36 -9 0 5 -5 11 -12 13 -7 3 18 5 54 6 69 2 83 -4 67 -28
-7 -13 -9 -12 -9 3 0 9 -4 17 -10 17 -5 0 -10 -9 -10 -20 0 -11 -4 -20 -10
-20 -5 0 -10 9 -10 20 0 11 -4 20 -10 20 -5 0 -10 -6 -10 -14 0 -8 5 -18 10
-21 6 -3 10 -17 10 -31 0 -13 5 -24 11 -24 18 0 38 -32 39 -59 0 -23 1 -24 20
-6 16 15 22 16 35 5 9 -7 14 -19 11 -26 -3 -7 -1 -16 5 -20 6 -4 6 -11 -2 -20
-9 -11 -8 -14 2 -14 12 0 12 -2 0 -9 -9 -6 -10 -11 -2 -15 6 -4 11 -3 11 1 0
8 9 10 65 16 14 1 25 5 25 10 0 14 18 7 24 -9 5 -14 1 -16 -29 -11 -25 4 -35
2 -35 -7 0 -17 58 -19 87 -4 19 9 26 7 47 -13 18 -17 22 -27 14 -36 -8 -10 -5
-13 10 -13 12 0 24 5 27 10 3 6 14 10 23 10 23 0 -27 -26 -67 -35 -30 -6 -43
6 -21 20 16 10 12 32 -6 39 -21 8 -33 -2 -16 -13 10 -6 10 -15 2 -35 -11 -30
-11 -30 55 -42 l40 -7 -50 -12 c-33 -8 -43 -13 -30 -16 17 -4 15 -7 -12 -19
-18 -8 -33 -17 -33 -20 0 -10 52 -29 66 -23 8 3 20 0 28 -6 16 -13 46 -4 46
14 0 11 20 25 36 25 14 0 0 -30 -16 -35 -11 -4 -18 -11 -14 -16 3 -5 -2 -24
-10 -41 -13 -25 -14 -33 -4 -40 10 -6 10 -8 1 -8 -7 0 -13 -5 -13 -10 0 -6 7
-6 19 2 10 6 17 18 14 25 -3 7 -2 13 1 13 8 0 46 -38 46 -46 0 -3 -9 -2 -20 1
-11 4 -20 2 -20 -4 0 -6 9 -15 20 -21 11 -6 20 -15 20 -19 0 -5 -9 -7 -20 -4
-11 3 -20 12 -20 19 0 18 -14 18 -29 0 -9 -11 -5 -15 19 -19 27 -6 30 -10 30
-42 0 -35 21 -71 34 -58 3 4 6 -6 6 -20 0 -19 4 -25 15 -21 9 4 15 0 15 -10 0
-9 -4 -16 -10 -16 -5 0 -10 -4 -10 -10 0 -5 16 -10 35 -10 24 0 35 -5 35 -15
0 -8 5 -15 10 -15 6 0 10 7 10 15 0 8 5 15 10 15 6 0 10 -7 10 -15 0 -8 -4
-15 -9 -15 -15 0 -25 -60 -12 -73 8 -8 11 -4 11 16 0 15 4 27 9 27 5 0 14 12
20 28 6 15 10 18 8 7 -2 -11 -1 -44 3 -73 6 -52 6 -53 -19 -52 -69 5 -71 3
-71 -45 0 -38 3 -45 20 -45 11 0 20 -4 20 -10 0 -5 -10 -10 -22 -10 -28 0 -12
-17 22 -23 21 -3 19 -5 -8 -6 -22 -1 -31 -5 -26 -13 4 -7 3 -8 -4 -4 -7 4 -17
-3 -24 -19 -6 -14 -22 -28 -35 -31 -29 -8 -30 -21 0 -27 21 -4 21 -4 1 -6 -12
0 -28 -8 -35 -17 -12 -15 -11 -16 9 -10 14 5 29 3 37 -4 8 -7 24 -10 35 -7 27
7 36 -10 10 -18 -12 -4 -27 -1 -35 5 -17 15 -61 9 -57 -8 1 -6 -4 -12 -12 -12
-7 0 -19 -7 -27 -16 -16 -20 1 -33 37 -26 22 4 24 1 23 -34 -1 -22 -3 -32 -6
-23 -7 27 -47 43 -73 29 -27 -15 -38 -5 -22 20 8 14 8 21 1 26 -6 4 -15 0 -20
-7 -15 -24 -10 -47 11 -54 11 -3 20 -11 20 -16 0 -5 6 -9 13 -9 18 0 67 -24
67 -32 0 -5 -8 -8 -19 -8 -14 0 -17 -6 -13 -25 3 -18 0 -25 -12 -25 -9 0 -19
6 -22 13 -3 9 -16 12 -34 9 -31 -4 -42 -22 -15 -22 27 0 16 -17 -15 -23 -21
-5 -28 -11 -24 -22 3 -8 15 -15 26 -15 10 0 16 5 13 10 -3 6 1 10 10 10 9 0
13 -4 10 -10 -3 -5 -2 -10 3 -10 5 0 12 9 15 20 5 20 27 28 27 10 0 -5 -4 -10
-9 -10 -6 0 -6 -12 0 -32 12 -45 11 -58 -5 -58 -22 0 -38 24 -24 38 9 9 2 12
-30 12 -23 0 -42 -5 -42 -10 0 -6 6 -10 13 -9 25 3 38 -1 32 -11 -3 -5 -1 -10
4 -10 6 0 11 -9 11 -20 0 -11 -4 -20 -10 -20 -5 0 -10 -9 -10 -20 0 -11 6 -20
14 -20 8 0 14 -11 14 -26 0 -14 4 -30 10 -36 7 -7 10 0 8 25 -3 33 -2 35 17
26 12 -7 17 -7 13 -1 -3 5 1 12 9 16 8 3 15 12 15 21 0 8 4 15 10 15 5 0 15
10 21 23 11 20 11 21 -4 9 -9 -8 -22 -12 -29 -9 -8 4 -7 6 5 6 9 1 17 5 17 10
0 5 12 12 28 16 25 7 25 8 7 15 -19 8 -19 9 2 9 30 1 40 21 18 38 -15 10 -16
13 -4 13 9 0 23 17 34 38 11 22 20 32 23 23 2 -7 1 -16 -4 -20 -18 -13 -34
-50 -24 -56 6 -3 10 -1 10 4 0 6 12 25 28 42 15 17 27 34 27 37 0 4 15 22 33
41 17 19 32 38 32 42 0 5 8 9 17 9 13 0 11 -6 -11 -29 -17 -18 -26 -36 -23
-45 4 -11 1 -16 -11 -16 -11 0 -13 -3 -5 -8 12 -8 1 -85 -16 -107 -5 -5 -36
-63 -70 -128 -41 -77 -60 -124 -56 -137 9 -27 62 -42 105 -30 49 14 86 12 100
-5 7 -8 17 -12 22 -8 6 3 1 14 -13 25 l-24 19 28 -12 c28 -13 51 -4 28 10 -8
6 -3 10 18 14 27 6 31 11 31 39 0 24 3 29 10 18 7 -12 12 -11 29 9 11 12 17
29 14 37 -3 9 0 13 8 10 8 -3 27 12 44 32 16 20 22 31 12 23 -24 -19 -22 2 3
24 11 10 20 14 20 9 0 -5 8 3 17 16 20 28 36 49 76 95 15 18 27 40 27 49 0 9
6 16 13 16 6 1 27 21 45 46 22 30 39 44 49 40 8 -3 21 -6 29 -6 24 0 17 -55
-8 -67 -26 -12 -132 -189 -122 -205 3 -5 28 -7 55 -5 44 4 52 2 79 -26 16 -17
31 -29 33 -26 82 102 117 150 117 158 0 5 6 14 13 18 8 4 22 22 33 38 10 17
47 67 81 113 35 45 63 86 63 89 0 12 53 63 65 63 22 0 12 -65 -20 -125 -55
-106 -107 -197 -177 -314 -37 -62 -68 -118 -68 -124 0 -16 -55 -100 -123 -187
-7 -8 -18 -27 -26 -42 -7 -14 -26 -40 -42 -58 -16 -17 -29 -33 -29 -36 0 -7
-62 -86 -75 -97 -5 -5 6 -6 25 -3 100 17 127 18 163 3 36 -16 38 -16 63 11 14
15 32 39 40 55 16 30 34 36 34 11 0 -20 -45 -96 -70 -119 -11 -10 -20 -25 -20
-34 0 -9 -9 -31 -20 -49 -24 -39 -26 -76 -4 -94 31 -26 69 -70 69 -80 0 -12
36 -28 47 -22 4 3 12 -12 19 -31 7 -19 16 -35 20 -35 10 0 32 92 44 180 2 19
8 57 14 85 5 27 8 52 6 55 -2 3 -6 22 -9 43 -3 21 -13 51 -21 67 -23 45 -18
67 25 118 21 26 69 83 106 127 129 155 159 190 209 245 57 63 65 70 82 70 19
0 4 -59 -26 -102 -14 -20 -48 -65 -74 -100 -85 -112 -209 -307 -205 -324 3
-18 8 -21 71 -48 20 -8 37 -22 37 -31 0 -19 13 -19 50 0 26 13 29 13 34 -3 3
-11 5 -8 4 8 0 40 2 46 12 30 7 -11 10 -5 10 23 0 20 -4 37 -9 37 -13 0 25
130 68 235 17 41 51 194 51 228 0 28 11 49 50 96 58 70 64 74 89 66 29 -9 30
-46 5 -132 -13 -43 -24 -85 -24 -93 0 -8 -9 -33 -20 -55 -11 -22 -19 -47 -20
-56 0 -8 -6 -35 -14 -60 -7 -24 -21 -71 -30 -104 -10 -33 -26 -78 -36 -100
-10 -22 -20 -51 -23 -65 -6 -28 -29 -109 -45 -155 -6 -16 -16 -55 -23 -85 -6
-30 -15 -60 -20 -66 -5 -6 -12 -33 -15 -60 -6 -47 -52 -142 -251 -524 -33 -63
-104 -200 -158 -305 -54 -104 -114 -219 -133 -255 -39 -73 -142 -271 -242
-465 -36 -71 -77 -157 -89 -190 -13 -33 -31 -79 -42 -101 -11 -24 -16 -49 -12
-59 4 -12 3 -16 -5 -11 -12 7 -29 -37 -23 -63 1 -7 -2 -10 -7 -7 -13 8 -23
-20 -15 -41 5 -12 3 -14 -7 -8 -10 6 -12 3 -8 -13 4 -12 3 -20 -1 -18 -4 3
-22 -32 -40 -77 -18 -45 -36 -89 -40 -97 -4 -8 -7 -27 -7 -42 1 -14 -3 -26 -9
-25 -5 1 -9 -11 -8 -28 2 -19 -1 -25 -6 -17 -7 11 -10 10 -15 -3 -3 -9 -3 -22
1 -27 3 -7 1 -8 -5 -4 -11 7 -17 -11 -13 -41 1 -7 -2 -13 -8 -13 -13 0 -32
-58 -20 -65 5 -4 9 -11 9 -18 0 -8 -3 -8 -12 1 -8 8 -14 5 -25 -15 -16 -30
-17 -47 -3 -38 7 4 8 -3 4 -22 -9 -38 -23 -51 -17 -16 l4 28 -16 -28 c-9 -15
-13 -32 -10 -37 3 -6 1 -10 -4 -10 -6 0 -11 -16 -11 -36 0 -21 -4 -33 -10 -29
-6 4 -10 -8 -11 -27 0 -18 -5 -42 -10 -53 -7 -15 -8 -11 -4 15 l5 35 -13 -30
c-8 -16 -12 -33 -10 -38 2 -4 -1 -7 -7 -7 -8 0 -10 -10 -6 -27 5 -21 4 -24 -4
-13 -8 13 -10 12 -11 -5 -1 -11 -1 -24 0 -29 3 -14 -10 -48 -16 -42 -9 8 -41
-57 -36 -71 3 -7 0 -13 -6 -13 -6 0 -11 -7 -11 -16 0 -21 -70 -83 -93 -84 -10
0 -32 7 -49 16 -51 26 -86 34 -96 21 -5 -7 -19 -41 -31 -77 -29 -87 -33 -92
-75 -92 -57 0 -143 49 -222 127 -68 67 -72 73 -89 145 -9 41 -20 135 -22 209
-4 88 -9 128 -15 117 -5 -9 -27 -105 -49 -214 -22 -108 -46 -201 -53 -207 -8
-6 -15 -43 -18 -95 -7 -107 -12 -116 -60 -141 -55 -28 -128 -20 -214 22 -60
30 -144 106 -144 131 0 11 -23 67 -45 108 -13 25 -24 68 -30 118 -13 99 -25
249 -31 379 -6 145 -16 183 -27 111 -3 -18 -8 -44 -11 -58 -4 -14 -8 -29 -10
-35 -4 -20 -27 -55 -35 -55 -4 0 -13 10 -19 22 -9 18 -10 -26 -6 -180 7 -237
-6 -369 -39 -419 -12 -18 -29 -33 -38 -33 -15 0 -76 40 -117 76 -59 52 -171
113 -218 119 l-34 5 5 -88 c13 -222 34 -365 65 -447 9 -25 8 -31 -6 -42 -10
-7 -27 -13 -38 -13 -18 0 -26 18 -60 133 -24 83 -41 168 -47 230 -4 53 -13
105 -18 115 -7 12 -8 5 -5 -28 2 -25 1 -39 -2 -32 -12 26 -21 10 -27 -48 -7
-80 -46 -147 -117 -199 -45 -34 -62 -41 -100 -41 -72 0 -143 40 -233 131 -44
45 -76 71 -73 60 3 -12 8 -29 10 -38 2 -10 23 -82 47 -160 23 -79 39 -146 35
-150 -12 -13 -313 -10 -326 3 -11 11 -13 19 -24 97 -5 31 -4 47 3 47 6 0 11 7
11 15 0 8 5 15 11 15 5 0 7 6 3 13 -5 8 -2 7 10 -2 9 -8 15 -20 12 -27 -6 -15
71 -31 85 -17 13 13 -18 53 -41 53 -10 0 -22 5 -25 10 -4 7 2 9 17 5 18 -5 27
0 41 24 15 26 16 37 7 71 -5 22 -15 59 -21 83 -24 97 -75 214 -99 226 -8 4
-44 8 -80 9 -50 2 -79 9 -122 31 -32 16 -58 27 -58 25 0 -3 9 -26 19 -52 23
-55 105 -268 115 -297 5 -13 -5 -8 -30 17 -39 40 -51 46 -56 26 -9 -35 -111
-161 -171 -211 -56 -47 -75 -57 -105 -57 -37 0 -89 27 -140 74 l-24 21 20 -50
c11 -27 30 -72 41 -98 12 -27 21 -53 21 -58 0 -6 -22 -9 -49 -8 -28 2 -48 6
-45 10 5 9 -17 49 -27 49 -4 0 -5 -10 -2 -23 5 -22 5 -22 -11 -2 -10 11 -15
14 -11 7 3 -6 2 -12 -4 -12 -25 0 -41 15 -51 46 -6 19 -16 34 -21 34 -5 0 -9
5 -9 11 0 21 -62 139 -71 133 -5 -3 -9 0 -9 6 0 12 -40 29 -81 34 -15 1 -35 8
-43 16 -9 7 -16 9 -16 4 0 -5 -4 -4 -8 2 -15 23 -49 -3 -55 -43 -4 -21 -19
-51 -33 -67 -25 -26 -31 -28 -83 -23 -81 7 -167 43 -212 88 -23 23 -59 82 -93
151 -57 119 -256 556 -256 563 0 2 -13 32 -29 67 -16 35 -103 232 -194 438
-203 460 -254 573 -324 719 -30 62 -59 123 -64 135 -5 11 -23 44 -39 71 -17
28 -41 73 -54 100 -28 58 -55 96 -56 77 0 -7 -4 -10 -10 -7 -5 3 -10 4 -10 1
0 -6 32 -78 73 -166 303 -642 400 -844 408 -850 3 -3 10 -16 14 -30 4 -14 20
-51 36 -84 16 -32 29 -64 29 -72 0 -8 3 -14 8 -14 4 0 21 -34 37 -75 17 -41
33 -75 36 -75 4 0 10 -12 14 -28 3 -15 20 -56 37 -92 56 -120 129 -284 160
-360 16 -41 37 -90 45 -109 8 -18 16 -39 18 -45 1 -6 5 -18 8 -26 36 -88 42
-174 15 -191 -6 -4 -15 -35 -20 -70 -10 -74 -27 -94 -99 -115 -87 -26 -203 -8
-248 38 -48 49 -110 169 -827 1602 -674 1347 -686 1370 -710 1480 -14 61 -27
113 -30 115 -2 2 -15 -1 -29 -7 -30 -14 -32 -9 -5 18 25 25 25 42 -1 143 -20
79 -39 114 -101 182 -15 17 -41 47 -58 68 -18 20 -40 37 -50 37 -18 0 -141
128 -207 216 -21 28 -67 88 -103 134 -36 45 -72 91 -80 102 -12 15 -22 18 -43
13 -33 -9 -33 -12 -3 -105 13 -41 50 -156 81 -255 31 -99 63 -198 70 -220 14
-45 95 -319 120 -407 9 -31 22 -62 30 -68 8 -7 15 -19 15 -27 0 -8 4 -12 8 -9
5 3 41 -28 80 -69 40 -41 78 -75 85 -75 16 0 57 53 57 75 0 8 5 15 10 15 16 0
12 -24 -15 -74 -13 -25 -21 -46 -16 -46 4 0 13 -10 19 -22 7 -13 31 -57 54
-98 74 -130 152 -270 191 -344 21 -39 49 -88 63 -108 13 -21 24 -40 24 -43 0
-3 12 -24 27 -48 15 -23 28 -48 29 -54 1 -7 16 -35 33 -63 17 -28 31 -52 31
-54 0 -2 26 -48 58 -103 32 -54 66 -114 75 -133 10 -19 26 -48 37 -65 11 -16
27 -46 36 -65 10 -19 45 -84 79 -145 34 -60 79 -141 100 -180 21 -38 63 -115
93 -170 67 -123 104 -188 112 -195 3 -3 20 -34 38 -70 39 -75 50 -96 113 -206
25 -44 52 -94 60 -112 8 -18 17 -32 21 -32 5 0 8 -6 8 -12 0 -7 21 -49 46 -93
26 -44 82 -149 125 -233 73 -141 93 -192 70 -178 -16 10 -86 117 -131 201 -24
44 -65 117 -92 163 -26 45 -48 85 -48 88 0 3 -8 18 -18 32 -11 15 -34 56 -52
92 -19 36 -41 76 -50 90 -9 14 -39 66 -65 115 -27 50 -59 108 -71 130 -37 65
-58 105 -108 199 -26 49 -58 108 -70 130 -13 23 -41 73 -62 111 -21 39 -47 88
-59 110 -12 22 -57 103 -100 180 -43 77 -92 167 -110 200 -18 33 -60 110 -94
171 -33 61 -61 114 -61 117 0 3 -17 34 -38 68 -21 35 -51 89 -66 119 -15 30
-38 73 -50 95 -12 22 -39 72 -60 110 -22 39 -61 109 -88 157 -26 47 -55 102
-63 122 -9 20 -22 36 -31 36 -8 0 -49 35 -90 77 -41 43 -74 75 -74 71 0 -4 16
-34 35 -67 19 -32 35 -62 35 -64 0 -3 18 -36 40 -75 22 -38 44 -93 50 -122 6
-29 22 -78 36 -108 15 -31 32 -69 38 -86 23 -60 71 -156 78 -156 4 0 -5 28
-18 61 -14 34 -22 64 -19 67 3 4 9 2 13 -4 66 -94 174 -284 447 -784 97 -179
185 -338 195 -355 10 -16 31 -55 47 -85 16 -30 85 -156 153 -280 160 -292 224
-411 319 -600 43 -85 110 -217 148 -292 l69 -137 -25 -4 -26 -3 30 -13 c17 -8
50 -19 74 -25 58 -16 69 -40 15 -31 -124 20 -185 37 -194 56 -9 16 -7 19 12
19 25 0 14 16 -16 22 -20 3 -24 14 -33 81 -4 28 -9 37 -22 35 -9 -2 -16 4 -16
12 0 8 -7 22 -16 30 -10 9 -15 27 -14 43 2 15 0 25 -5 22 -4 -3 -10 2 -14 10
-3 8 -12 15 -21 15 -8 0 -15 7 -15 15 0 27 -45 46 -114 47 -37 0 -69 5 -72 9
-3 5 -17 9 -30 9 -18 0 -42 -17 -80 -55 -58 -60 -78 -109 -68 -166 7 -39 57
-138 83 -166 45 -48 50 -65 47 -168 -2 -55 -9 -158 -15 -230 -15 -151 -19
-207 -26 -365 -19 -377 -19 -395 -16 -475 1 -22 2 -121 3 -220 0 -99 1 -196 1
-215 0 -19 -1 -57 -2 -85 -2 -27 -2 -92 -1 -143 l2 -92 474 0 c455 0 474 1
474 19 0 24 20 81 28 81 8 -1 42 -72 42 -88 0 -9 115 -12 470 -12 259 0 470 4
470 8 0 5 -9 27 -20 50 -11 22 -20 52 -20 66 0 27 65 146 80 146 12 0 28 -31
46 -88 18 -59 17 -110 -1 -142 -20 -35 -19 -39 14 -38 21 1 32 8 41 27 l12 26
22 -27 c21 -27 66 -39 66 -18 0 5 -10 30 -22 55 l-22 46 22 43 c13 24 36 59
51 77 l28 34 32 -62 c34 -68 39 -122 16 -163 -20 -36 -19 -40 15 -40 19 0 33
7 40 20 6 11 15 20 20 20 5 0 12 -9 15 -20 5 -15 15 -20 40 -20 l34 0 -25 55
-25 55 30 53 c17 28 40 63 52 76 17 21 22 22 30 10 20 -29 47 -85 58 -121 12
-35 8 -54 -27 -120 -2 -5 87 -8 197 -8 111 0 201 2 201 5 0 3 -7 17 -16 30
-20 30 -24 92 -7 114 11 15 13 14 27 -4 8 -11 25 -39 36 -62 11 -24 25 -43 31
-43 6 0 9 -9 6 -20 -5 -18 0 -20 44 -20 40 0 49 3 49 18 1 16 1 16 14 0 8 -11
26 -18 44 -18 l32 0 -27 55 -28 56 23 43 c29 54 79 109 92 101 20 -13 70 -110
70 -138 0 -15 -9 -45 -20 -67 -25 -49 -25 -50 4 -50 15 0 27 7 31 19 3 11 12
24 20 31 11 9 17 5 30 -19 12 -24 22 -31 45 -31 17 0 30 2 30 4 0 3 -13 25
-30 49 -16 25 -30 52 -30 61 0 20 87 156 99 156 18 0 71 -107 71 -142 0 -21
-12 -52 -30 -81 l-30 -47 33 0 c25 0 36 7 49 30 22 38 32 38 48 0 11 -26 18
-30 49 -30 l37 0 -28 59 c-40 84 -39 117 6 185 20 31 40 56 43 56 22 0 73
-102 73 -145 0 -38 -28 -103 -54 -124 -23 -19 -20 -31 8 -31 18 0 32 12 53 45
15 25 31 45 36 45 4 0 20 -20 35 -45 26 -44 28 -45 77 -45 49 0 50 1 80 50 16
28 32 50 35 50 3 0 14 -15 25 -32 19 -32 21 -37 24 -58 1 -7 570 -10 1686 -10
l1685 0 0 4255 0 4255 -1330 0 c-929 0 -1330 -3 -1330 -11z m235 -259 c-3 -5
-10 -10 -16 -10 -5 0 -9 5 -9 10 0 6 7 10 16 10 8 0 12 -4 9 -10z m-55 -35 c0
-17 11 -19 26 -6 5 5 20 12 34 16 23 6 22 4 -6 -14 -25 -17 -40 -19 -82 -14
-54 6 -68 18 -29 26 44 9 57 7 57 -8z m230 -240 c0 -8 -4 -15 -10 -15 -5 0
-10 7 -10 15 0 8 5 15 10 15 6 0 10 -7 10 -15z m75 -56 c-7 -10 -38 -12 -48
-2 -4 3 -2 12 4 19 13 16 54 0 44 -17z m75 17 c0 -8 -5 -16 -10 -18 -6 -2 -14
-29 -17 -61 -3 -35 -10 -56 -17 -54 -13 4 -17 65 -5 73 5 3 9 14 9 25 0 10 5
19 10 19 6 0 10 7 10 15 0 8 5 15 10 15 6 0 10 -6 10 -14z m56 -54 c-3 -5 -20
-9 -38 -9 -27 -1 -29 1 -13 7 27 11 57 12 51 2z m-6 -32 c0 -5 -3 -10 -7 -10
-5 0 -18 -3 -30 -6 -13 -4 -23 -2 -23 4 0 10 19 18 48 21 6 0 12 -3 12 -9z
m70 -42 c0 -5 -4 -8 -10 -8 -5 0 -10 10 -10 23 0 18 2 19 10 7 5 -8 10 -18 10
-22z m-30 12 c0 -5 -4 -10 -10 -10 -5 0 -10 5 -10 10 0 6 5 10 10 10 6 0 10
-4 10 -10z m70 -30 c0 -5 -2 -10 -4 -10 -3 0 -8 5 -11 10 -3 6 -1 10 4 10 6 0
11 -4 11 -10z m133 -67 c-7 -2 -19 -2 -25 0 -7 3 -2 5 12 5 14 0 19 -2 13 -5z
m-53 -93 c0 -5 -2 -10 -4 -10 -3 0 -8 5 -11 10 -3 6 -1 10 4 10 6 0 11 -4 11
-10z m-95 -30 c17 -7 15 -9 -12 -9 -18 -1 -33 4 -33 9 0 12 17 12 45 0z m150
-27 c1 -14 -3 -19 -12 -16 -16 6 -18 46 -1 41 6 -2 12 -14 13 -25z m-45 -18
c-7 -9 -15 -13 -18 -10 -3 2 1 11 8 20 7 9 15 13 18 10 3 -2 -1 -11 -8 -20z
m120 11 c0 -2 -7 -7 -16 -10 -8 -3 -12 -2 -9 4 6 10 25 14 25 6z m-85 -96 c18
-15 36 -4 28 18 -5 13 -3 14 7 6 17 -16 4 -51 -21 -57 -13 -3 -18 -10 -14 -17
4 -6 13 -9 21 -6 8 3 14 1 14 -4 0 -6 8 -11 18 -11 16 -1 16 -2 0 -6 -10 -2
-18 -9 -18 -15 0 -5 7 -8 15 -5 8 4 17 2 20 -3 3 -5 -5 -10 -17 -12 -28 -4
-21 -24 7 -21 18 3 18 2 3 -8 -20 -11 -25 -50 -5 -45 6 1 9 1 5 -1 -12 -7 -9
-31 5 -36 8 -4 7 -6 -3 -6 -16 -1 -50 58 -50 85 0 11 -6 13 -20 9 -14 -5 -20
-2 -20 10 0 12 6 15 20 10 16 -5 20 -2 20 19 0 16 -6 26 -15 26 -8 0 -15 8
-15 19 0 10 -2 38 -4 62 -2 24 -2 34 1 22 2 -12 10 -27 18 -33z m135 20 c0 -5
-2 -10 -4 -10 -3 0 -8 5 -11 10 -3 6 -1 10 4 10 6 0 11 -4 11 -10z m120 -40
c0 -5 -4 -10 -10 -10 -5 0 -10 5 -10 10 0 6 5 10 10 10 6 0 10 -4 10 -10z
m-260 -70 c0 -5 -4 -10 -10 -10 -5 0 -10 5 -10 10 0 6 5 10 10 10 6 0 10 -4
10 -10z m133 -67 c-7 -2 -19 -2 -25 0 -7 3 -2 5 12 5 14 0 19 -2 13 -5z m4
-39 c-3 -3 -12 -4 -19 -1 -8 3 -5 6 6 6 11 1 17 -2 13 -5z m240 0 c-3 -3 -12
-4 -19 -1 -8 3 -5 6 6 6 11 1 17 -2 13 -5z m-137 -124 c0 -5 -6 -10 -12 -13
-10 -3 -10 -7 0 -19 10 -13 9 -18 -3 -28 -13 -11 -15 -6 -15 33 0 37 3 45 15
41 8 -4 15 -10 15 -14z m-50 -30 c0 -22 -4 -40 -10 -40 -5 0 -10 18 -10 40 0
22 5 40 10 40 6 0 10 -18 10 -40z m105 21 c-3 -6 -14 -10 -23 -10 -15 1 -15 2
1 6 9 2 17 9 17 15 0 6 3 9 6 5 3 -3 3 -10 -1 -16z m-15 -51 c0 -5 -5 -10 -11
-10 -5 0 -7 5 -4 10 3 6 8 10 11 10 2 0 4 -4 4 -10z m2 -68 c8 -30 -6 -28 -20
3 -7 14 -19 28 -28 32 -11 4 -12 8 -4 13 15 9 45 -19 52 -48z m-122 18 c0 -5
-5 -12 -10 -15 -6 -4 -8 -11 -5 -16 3 -5 -1 -6 -10 -3 -12 5 -13 9 -4 20 9 11
9 14 0 14 -7 0 -10 4 -6 10 6 10 35 2 35 -10z m7 -72 c-3 -7 -5 -2 -5 12 0 14
2 19 5 13 2 -7 2 -19 0 -25z m43 22 c0 -5 -4 -10 -10 -10 -5 0 -10 5 -10 10 0
6 5 10 10 10 6 0 10 -4 10 -10z m-20 -66 c0 -8 -4 -12 -10 -9 -5 3 -10 13 -10
21 0 8 5 12 10 9 6 -3 10 -13 10 -21z m43 -18 c-3 -4 -9 -2 -14 5 -13 22 -11
31 5 17 8 -7 12 -17 9 -22z m-128 -16 c3 -5 1 -10 -4 -10 -6 0 -11 5 -11 10 0
6 2 10 4 10 3 0 8 -4 11 -10z m95 -10 c0 -5 -4 -10 -10 -10 -5 0 -10 5 -10 10
0 6 5 10 10 10 6 0 10 -4 10 -10z m70 0 c0 -5 -4 -10 -10 -10 -5 0 -10 5 -10
10 0 6 5 10 10 10 6 0 10 -4 10 -10z m-63 -36 c-3 -3 -12 -4 -19 -1 -8 3 -5 6
6 6 11 1 17 -2 13 -5z m-47 -10 c0 -3 -7 -12 -15 -20 -11 -11 -19 -12 -32 -5
-16 9 -16 10 5 11 12 0 22 5 22 10 0 6 5 10 10 10 6 0 10 -3 10 -6z m-150 -81
c0 -10 -4 -14 -8 -8 -4 6 -11 13 -16 18 -5 4 -2 7 7 7 10 0 17 -8 17 -17z m74
-2 c3 -5 -3 -11 -14 -14 -13 -3 -20 0 -20 9 0 15 26 19 34 5z m71 -21 c3 -5
-1 -10 -10 -10 -9 0 -13 5 -10 10 3 6 8 10 10 10 2 0 7 -4 10 -10z m-75 -19
c0 -6 -4 -13 -10 -16 -5 -3 -10 1 -10 9 0 9 5 16 10 16 6 0 10 -4 10 -9z m66
-26 c-33 -18 -36 -18 -36 -6 0 9 21 18 50 20 8 0 2 -6 -14 -14z m-191 -15 c8
-13 -25 -13 -45 0 -12 8 -9 10 12 10 15 0 30 -4 33 -10z m205 0 c0 -5 -5 -10
-11 -10 -5 0 -7 5 -4 10 3 6 8 10 11 10 2 0 4 -4 4 -10z m-103 -72 c-3 -7 -5
-2 -5 12 0 14 2 19 5 13 2 -7 2 -19 0 -25z m-58 -19 c-11 -11 -19 -27 -18 -36
0 -11 3 -13 6 -5 2 6 12 12 20 12 13 0 13 -3 3 -15 -16 -19 -50 -19 -50 0 0
30 41 89 51 73 4 -6 -2 -19 -12 -29z m21 -79 c-20 -13 -40 -13 -40 0 0 6 12
10 28 10 21 0 24 -2 12 -10z m-87 -96 c10 -11 -5 -34 -22 -34 -14 1 -14 2 2
14 18 14 18 14 0 19 -14 4 -14 5 -2 6 9 0 18 -2 22 -5z m417 -84 c0 -5 -5 -10
-11 -10 -5 0 -7 5 -4 10 3 6 8 10 11 10 2 0 4 -4 4 -10z m-6896 -1137 c-13
-52 -20 -69 -22 -51 -3 28 27 143 35 134 3 -3 -3 -40 -13 -83z m6913 -1515
c-3 -8 -6 -5 -6 6 -1 11 2 17 5 13 3 -3 4 -12 1 -19z m-437 -1108 c0 -5 -4
-10 -10 -10 -5 0 -10 5 -10 10 0 6 5 10 10 10 6 0 10 -4 10 -10z m-15 -118
c-3 -3 -11 0 -18 7 -9 10 -8 11 6 5 10 -3 15 -9 12 -12z m-2752 -252 c4 -14 0
-20 -12 -20 -23 0 -31 9 -24 26 8 21 30 17 36 -6z m-783 -270 c0 -13 -11 -13
-30 0 -12 8 -11 10 8 10 12 0 22 -4 22 -10z m2610 -30 c0 -5 -10 -10 -22 -10
-12 0 -35 -4 -52 -10 -48 -14 -207 -51 -245 -56 -19 -3 -38 -7 -42 -10 -5 -3
-30 -9 -57 -14 -26 -4 -72 -13 -102 -19 -87 -17 -112 -21 -165 -27 -27 -3 -75
-10 -105 -15 -30 -6 -89 -13 -130 -15 -41 -3 -93 -9 -115 -14 -23 -5 -75 -9
-116 -8 -41 0 -88 -2 -105 -6 -16 -4 -55 -9 -84 -11 -30 -2 -68 -7 -85 -10
-78 -13 -482 -6 -655 12 -36 4 -121 8 -190 9 -69 1 -138 5 -155 9 -35 8 -68
12 -150 19 -33 2 -116 11 -185 20 -69 8 -162 18 -207 22 -46 3 -81 10 -78 14
2 3 -18 6 -45 5 -28 -1 -50 2 -50 6 0 10 98 10 104 0 3 -4 26 -6 53 -5 26 0
51 -4 55 -10 6 -8 8 -8 8 0 0 6 19 11 43 12 30 1 38 -1 27 -8 -12 -8 -9 -10
13 -10 15 0 27 5 27 10 0 6 15 10 33 10 21 0 28 -3 19 -9 -10 -6 -7 -10 12
-13 14 -3 23 -1 20 3 -3 5 0 9 5 9 6 0 11 -6 12 -12 0 -10 2 -10 6 0 6 14 63
17 63 2 0 -5 5 -10 11 -10 5 0 8 4 5 9 -4 5 18 8 49 8 30 -1 55 -5 55 -9 0 -5
-8 -8 -17 -9 -15 0 -15 -2 2 -8 11 -5 32 -5 47 0 14 4 30 4 34 1 4 -4 4 -1 0
6 -5 8 2 12 24 12 18 0 33 -6 36 -15 4 -8 18 -15 34 -15 16 0 30 -4 32 -9 2
-5 12 -3 22 5 19 14 19 14 -5 15 -22 0 -22 1 -4 8 26 10 207 1 220 -10 6 -6
-19 -8 -63 -5 -41 3 -72 1 -72 -5 0 -5 12 -10 28 -10 15 -1 45 -3 67 -5 355
-25 661 -21 941 13 21 2 68 6 104 8 36 2 71 4 78 4 6 1 12 4 12 9 0 9 -124 7
-139 -2 -12 -8 -31 0 -31 13 0 7 232 29 332 31 32 1 68 3 80 5 13 3 59 7 104
9 44 3 92 7 105 10 13 3 47 8 74 10 64 7 116 15 135 21 8 3 35 7 60 10 39 4
165 26 225 39 37 7 55 6 55 -4z m-1880 -8 c0 -11 -72 -12 -90 -1 -10 5 3 8 38
9 28 0 52 -4 52 -8z m-903 -8 c-3 -3 -12 -4 -19 -1 -8 3 -5 6 6 6 11 1 17 -2
13 -5z m-392 -84 c3 -5 -1 -10 -9 -10 -8 0 -18 5 -21 10 -3 6 1 10 9 10 8 0
18 -4 21 -10z m1988 -35 c4 -21 -256 -39 -556 -37 -233 1 -267 3 -267 20 0 4
152 8 338 8 185 1 366 6 402 12 74 11 81 10 83 -3z m-833 -15 c3 -1 -6 -5 -20
-9 -27 -8 -43 -4 -35 8 4 7 41 8 55 1z m2517 -41 c9 -9 8 -22 -4 -53 -30 -77
-47 -81 -63 -12 -7 32 -5 39 17 56 30 23 35 24 50 9z m-123 -37 c9 -15 -23
-52 -39 -46 -8 4 -15 1 -15 -5 0 -6 6 -11 13 -12 9 0 9 -2 0 -6 -8 -3 -11 -14
-7 -29 10 -41 -19 -28 -39 16 -23 53 -22 69 6 80 28 11 74 12 81 2z m-154 -48
c0 -24 -52 -124 -64 -124 -15 0 -55 105 -46 119 7 12 89 31 103 24 4 -2 7 -11
7 -19z m-4340 -49 c0 -14 -2 -25 -4 -25 -2 0 -6 11 -8 25 -3 14 -1 25 3 25 5
0 9 -11 9 -25z m2220 15 c0 -5 -5 -10 -11 -10 -5 0 -7 5 -4 10 3 6 8 10 11 10
2 0 4 -4 4 -10z m1930 -1 c0 -12 -69 -84 -74 -78 -2 2 -10 19 -20 38 -16 34
-13 58 4 31 6 -9 10 -10 10 -3 0 12 20 20 58 22 12 0 22 -4 22 -10z m391 -20
c15 -52 9 -117 -15 -164 l-23 -47 -22 27 c-28 37 -27 96 4 163 26 56 45 63 56
21z m-2286 11 c3 -5 1 -10 -4 -10 -6 0 -11 5 -11 10 0 6 2 10 4 10 3 0 8 -4
11 -10z m1705 -10 c0 -15 -49 -107 -64 -119 -10 -8 -16 -4 -25 17 -7 15 -19
40 -27 56 -8 16 -13 31 -10 33 3 3 29 9 58 13 29 4 56 8 61 9 4 0 7 -4 7 -9z
m-3798 -35 c-4 -30 -19 -57 -19 -33 0 8 -3 26 -7 41 -6 24 -4 28 11 25 13 -2
17 -11 15 -33z m4231 -4 c19 -33 22 -61 7 -61 -7 0 -8 -13 -5 -34 5 -24 1 -48
-13 -79 -11 -25 -17 -48 -14 -52 4 -4 0 -5 -7 -3 -18 4 -61 91 -61 123 0 36
50 135 69 135 4 0 14 -13 24 -29z m-873 -16 c0 -25 -26 -69 -53 -90 -14 -10
-23 -24 -20 -32 8 -21 -5 -15 -18 8 -8 15 -8 19 0 15 13 -9 15 26 2 40 -11 11
-22 59 -16 66 3 2 27 5 55 7 40 2 50 -1 50 -14z m506 -50 c7 -21 11 -42 8 -47
-3 -4 -1 -8 3 -8 5 0 10 -15 11 -32 2 -34 -37 -116 -52 -110 -5 2 -12 -1 -16
-7 -4 -7 -15 5 -26 29 -10 22 -22 40 -26 40 -5 0 -8 9 -8 20 0 26 72 161 84
157 4 -2 14 -20 22 -42z m-3948 -70 c-2 -57 -10 -64 -24 -24 -12 33 -11 48 2
107 l7 27 8 -35 c5 -19 8 -53 7 -75z m712 90 c0 -8 -9 -32 -20 -52 -11 -21
-20 -43 -20 -50 0 -30 -30 -11 -39 25 -25 100 -27 92 29 92 38 0 50 -4 50 -15z
m2250 -14 c0 -23 -67 -126 -82 -126 -7 0 -19 14 -27 30 -9 17 -26 47 -39 68
-26 44 -24 45 63 49 73 4 85 1 85 -21z m172 -10 c16 -29 17 -38 7 -69 l-12
-37 -11 25 c-6 14 -15 28 -20 31 -4 4 -5 12 -1 19 5 7 4 11 -1 8 -5 -3 -16 10
-26 29 l-16 34 31 -3 c23 -2 35 -12 49 -37z m-2200 -1 c-4 -26 -45 -110 -53
-110 -4 0 -11 4 -14 10 -5 8 -35 114 -35 123 0 2 24 0 53 -3 39 -4 51 -9 49
-20z m3228 11 c16 -32 12 -87 -10 -112 l-19 -24 -1 78 c0 76 10 95 30 58z
m-3987 -106 c0 -45 -13 -106 -22 -101 -5 3 -14 32 -21 65 -12 56 -6 105 18
146 7 11 24 -65 25 -110z m2533 91 c-10 -41 -66 -117 -84 -114 -8 2 -25 21
-36 44 -12 23 -27 48 -34 57 -22 26 -8 33 78 35 l82 2 -6 -24z m-2132 -62 c23
-88 20 -96 -15 -37 -24 42 -29 60 -24 84 9 41 20 28 39 -47z m534 54 l24 -23
-6 23 c-6 18 -3 22 13 22 29 0 39 -45 16 -70 -10 -11 -25 -20 -33 -20 -11 0
-12 -3 -3 -13 6 -8 8 -17 4 -20 -12 -13 -23 -7 -23 11 0 10 -3 22 -7 26 -4 3
-8 14 -9 24 -1 9 -6 27 -9 40 -4 12 -4 22 1 22 4 0 19 -10 32 -22z m1342 4 c0
-22 -68 -132 -81 -132 -5 0 -13 10 -18 23 -8 21 -41 94 -49 109 -3 6 23 10
111 15 29 2 37 -1 37 -15z m-1052 -11 c3 -9 8 -9 18 0 12 10 13 8 8 -7 -11
-31 -55 -104 -63 -104 -8 0 -33 51 -49 99 l-11 34 47 -6 c25 -3 48 -10 50 -16z
m533 -4 c9 -19 6 -32 -18 -70 -15 -26 -31 -47 -36 -47 -4 0 -21 28 -36 63 -32
70 -29 77 37 77 35 0 44 -4 53 -23z m255 10 c7 -6 -48 -107 -57 -107 -4 0 -14
17 -23 38 -9 20 -21 45 -26 54 -7 12 -5 18 8 21 21 6 91 2 98 -6z m-1470 -38
c-9 -19 -15 -29 -16 -22 0 15 22 64 27 60 2 -2 -3 -19 -11 -38z m83 -28 c12
-38 21 -85 21 -104 0 -29 -37 -116 -59 -140 -4 -4 -23 30 -41 77 l-33 85 32
60 c17 33 31 67 31 76 0 8 6 15 14 15 9 0 22 -26 35 -69z m835 44 c9 -14 13
-25 9 -25 -5 0 -3 -4 4 -8 9 -6 8 -15 -4 -40 -8 -17 -19 -32 -22 -32 -6 0 -36
61 -58 118 -3 8 5 12 25 12 21 0 35 -8 46 -25z m1850 -25 c-1 -33 1 -48 8 -44
7 5 9 -3 6 -20 -3 -15 -2 -42 2 -59 8 -37 -14 -101 -33 -94 -15 5 -77 107 -77
127 0 18 77 140 89 140 4 0 7 -23 5 -50z m280 -35 c4 -31 1 -49 -15 -75 -20
-33 -22 -33 -35 -15 -8 11 -11 26 -7 35 4 8 7 43 7 76 l-1 62 22 -22 c13 -11
25 -39 29 -61z m-2739 5 c41 -111 41 -109 1 -188 -20 -40 -40 -70 -45 -68 -11
7 -61 149 -61 173 0 11 11 34 24 52 13 18 30 46 37 62 14 35 22 30 44 -31z
m279 -107 c1 -23 -4 -47 -10 -53 -15 -15 -79 -24 -101 -14 -13 6 -5 9 32 13
46 6 50 8 47 31 -1 13 -11 33 -21 45 -26 27 -38 110 -20 131 12 15 17 9 43
-47 17 -37 30 -82 30 -106z m1525 2 c1 -30 -9 -56 -40 -104 -23 -36 -44 -60
-49 -55 -15 16 -80 143 -80 157 0 7 23 49 51 92 l52 79 33 -64 c21 -41 33 -80
33 -105z m220 101 c17 -35 31 -73 31 -86 0 -30 -70 -162 -84 -157 -10 3 -95
135 -96 149 0 10 102 158 110 158 4 0 21 -29 39 -64z m-505 -17 c20 -39 36
-83 36 -97 0 -28 -67 -153 -85 -159 -12 -4 -91 146 -87 165 3 13 93 162 97
162 2 0 19 -32 39 -71z m1521 61 c3 -5 1 -10 -4 -10 -6 0 -11 5 -11 10 0 6 2
10 4 10 3 0 8 -4 11 -10z m-1778 -84 c42 -96 38 -113 -49 -240 -14 -19 -27 15
-21 52 5 25 0 46 -17 77 -22 41 -23 44 -7 69 9 14 17 35 17 46 0 21 27 70 39
70 4 0 21 -33 38 -74z m-776 50 c1 -6 1 -17 0 -23 -1 -7 2 -13 7 -13 12 0 22
-23 32 -73 5 -26 4 -37 -4 -34 -6 2 -10 19 -8 38 2 26 0 30 -7 19 -9 -13 -11
-13 -12 3 -1 9 -2 23 -3 30 0 6 -8 12 -16 12 -9 0 -15 10 -15 26 -1 24 24 38
26 15z m509 -26 c7 -22 19 -45 27 -51 7 -6 13 -26 13 -43 0 -35 -54 -136 -73
-136 -7 0 -25 29 -41 65 -25 57 -26 68 -16 99 6 19 18 40 26 46 7 7 14 18 14
24 0 13 20 36 30 36 4 0 13 -18 20 -40z m2367 -26 c7 -28 7 -61 2 -87 -16 -74
-31 -127 -38 -127 -17 0 -55 78 -53 111 1 42 49 149 66 149 7 0 17 -21 23 -46z
m-3179 4 c-6 -18 -28 -21 -28 -4 0 9 7 16 16 16 9 0 14 -5 12 -12z m286 -41
c4 4 4 -6 0 -22 -7 -27 -6 -29 9 -16 10 7 17 10 18 5 8 -69 6 -91 -12 -125
-11 -22 -23 -39 -28 -39 -4 0 -25 38 -46 85 l-37 84 21 35 c29 46 44 49 56 14
6 -16 14 -26 19 -21z m2732 16 c36 -56 20 -181 -29 -222 -14 -11 -19 -8 -37
21 -11 18 -21 42 -21 53 -3 39 3 90 12 100 5 5 9 16 9 24 0 15 28 51 40 51 4
0 16 -12 26 -27z m-2526 -13 c0 -5 16 -44 35 -86 28 -59 33 -80 24 -90 -6 -8
-14 -14 -18 -14 -4 0 -24 35 -45 79 -33 69 -36 81 -24 100 14 22 28 28 28 11z
m-465 -14 c28 -20 12 -46 -29 -46 -36 0 -64 28 -51 50 9 15 58 12 80 -4z
m2609 -56 c27 -51 33 -94 16 -105 -5 -3 -10 -14 -10 -23 0 -9 -14 -34 -29 -55
l-29 -38 -16 23 c-9 12 -16 28 -16 34 0 6 -9 23 -21 38 -18 24 -20 30 -9 56 7
17 15 30 19 30 3 0 17 23 30 50 14 27 28 47 32 45 4 -3 19 -27 33 -55z m188
43 c10 -9 18 -24 18 -33 0 -22 -32 -63 -70 -90 -28 -20 -29 -20 -39 -2 -10 19
3 53 45 120 17 26 22 27 46 5z m-838 -9 c9 -24 2 -26 -12 -4 -7 11 -8 20 -3
20 5 0 12 -7 15 -16z m-3285 -61 c0 -48 -2 -54 -11 -36 -9 20 -4 93 7 93 3 0
5 -26 4 -57z m161 24 c0 -5 -4 -5 -10 -2 -5 3 -10 14 -10 23 0 15 2 15 10 2 5
-8 10 -19 10 -23z m183 -25 c5 -7 7 -15 3 -19 -3 -3 -6 0 -7 8 0 8 -4 5 -8 -6
-9 -22 -2 -43 8 -26 4 5 7 -11 8 -37 0 -26 -1 -39 -4 -29 -7 28 -22 20 -17
-10 3 -15 7 -30 10 -35 3 -4 1 -8 -4 -8 -5 0 -17 27 -27 60 -17 57 -17 61 1
107 13 35 19 43 22 28 2 -11 9 -26 15 -33z m343 1 c-8 -15 -15 -25 -16 -21 0
12 23 58 27 54 3 -2 -2 -17 -11 -33z m77 -10 c7 -27 12 -52 9 -56 -6 -12 -50
76 -45 90 10 25 22 13 36 -34z m255 -111 c3 -32 -2 -58 -23 -107 -15 -36 -33
-65 -40 -65 -11 0 -23 26 -53 121 -17 50 -15 63 14 122 43 86 46 87 73 26 13
-30 26 -73 29 -97z m-868 98 c0 -16 -4 -31 -9 -34 -4 -3 -8 12 -8 34 0 22 4
37 8 34 5 -3 9 -18 9 -34z m3095 -6 c15 -25 25 -54 22 -65 -3 -12 -1 -17 5
-12 8 4 9 -7 6 -35 -6 -42 -55 -133 -73 -136 -5 0 -29 31 -53 71 -48 77 -48
81 2 145 12 15 29 38 39 52 10 14 20 26 22 26 1 0 15 -21 30 -46z m-2011 -41
c14 -34 26 -75 26 -91 0 -34 -58 -154 -72 -150 -11 4 -68 145 -68 170 0 27 72
150 82 140 3 -4 18 -35 32 -69z m1776 21 c48 -86 48 -108 2 -184 -22 -36 -44
-65 -50 -65 -15 0 -92 121 -92 144 0 25 82 160 97 161 6 0 25 -25 43 -56z
m-1519 -32 c33 -82 33 -85 15 -127 l-13 -30 -18 38 c-17 36 -20 38 -59 35 -50
-4 -61 16 -11 20 43 4 47 22 5 22 -16 0 -30 4 -30 10 0 18 62 111 72 108 5 -2
23 -36 39 -76z m1272 7 c29 -49 37 -71 33 -96 -5 -34 -75 -147 -91 -146 -12 0
-85 130 -85 152 0 9 18 43 40 76 22 33 40 66 40 73 0 28 26 4 63 -59z m-1043
38 c0 -7 7 -25 15 -41 9 -16 16 -41 17 -55 1 -14 5 -28 8 -31 4 -3 3 -16 -1
-30 l-7 -25 -1 28 c-1 15 -6 27 -12 27 -7 0 -9 9 -6 21 4 15 2 19 -9 15 -12
-5 -18 5 -15 26 0 4 -5 5 -12 2 -14 -5 -15 26 -3 64 7 22 26 22 26 -1z m779
-49 c17 -31 31 -71 31 -89 0 -34 -66 -159 -85 -159 -5 0 -29 36 -52 79 -46 87
-48 72 21 180 22 34 43 58 47 54 4 -4 21 -33 38 -65z m-1144 52 c-3 -5 -15
-10 -26 -10 -10 0 -19 -5 -19 -11 0 -5 -4 -7 -10 -4 -24 15 -9 35 26 35 21 0
33 -4 29 -10z m891 -70 c13 -30 23 -66 24 -81 0 -26 -53 -119 -68 -119 -4 0
-23 31 -41 68 -29 61 -32 72 -21 93 32 59 62 100 72 97 5 -2 21 -28 34 -58z
m-916 30 c0 -5 -5 -10 -11 -10 -5 0 -7 5 -4 10 3 6 8 10 11 10 2 0 4 -4 4 -10z
m2186 -16 c7 -26 -18 -94 -33 -94 -30 1 -37 41 -18 98 10 31 43 29 51 -4z
m884 -16 c11 -24 20 -58 20 -75 0 -37 -48 -143 -65 -143 -16 0 -55 86 -55 122
0 32 54 138 71 138 6 0 19 -19 29 -42z m-280 17 c0 -12 -24 -65 -29 -65 -12 0
-34 47 -27 58 5 8 56 15 56 7z m-2450 -13 c0 -5 8 -17 19 -28 32 -35 43 -148
17 -185 -14 -21 -16 -19 -55 61 -23 45 -41 85 -41 89 0 13 40 71 50 71 5 0 10
-4 10 -8z m2358 -68 c21 -34 31 -101 13 -90 -5 4 -7 -3 -4 -15 5 -19 -34 -119
-46 -119 -23 1 -71 82 -71 121 0 23 39 99 51 99 4 0 11 9 14 20 9 28 16 25 43
-16z m-3952 -18 c4 -26 2 -36 -5 -31 -6 3 -11 0 -11 -7 0 -10 -2 -10 -9 1 -7
11 7 86 15 78 2 -2 6 -20 10 -41z m516 12 c-7 -7 -12 -8 -12 -2 0 14 12 26 19
19 2 -3 -1 -11 -7 -17z m1308 -2 c0 -6 14 -33 30 -59 31 -49 38 -77 19 -77 -6
0 -8 9 -4 21 4 13 3 19 -2 16 -6 -4 -22 15 -37 42 -26 49 -35 87 -16 76 6 -3
10 -12 10 -19z m1712 -138 c0 -31 -4 -54 -11 -56 -6 -2 -11 -12 -11 -23 0 -10
-9 -28 -21 -40 l-21 -21 -20 39 c-38 69 -29 163 21 224 13 16 16 14 38 -27 15
-28 24 -62 25 -96z m-2813 93 c-6 -17 -17 -35 -25 -42 -13 -11 -14 -9 -3 17
24 54 45 73 28 25z m661 9 c0 -12 -9 -24 -22 -29 -23 -9 -23 -9 5 -20 24 -9
26 -14 17 -30 -19 -37 -30 -32 -55 21 -34 72 -32 78 15 78 34 0 40 -3 40 -20z
m1700 -148 c0 -37 -8 -60 -36 -105 -20 -32 -41 -56 -48 -54 -18 6 -85 120 -85
147 -1 21 49 107 91 157 19 23 78 -87 78 -145z m195 119 c5 -17 4 -21 -5 -16
-15 9 6 -32 27 -53 15 -16 17 -32 3 -32 -6 0 -8 -10 -4 -24 4 -17 -3 -41 -22
-75 -15 -28 -30 -51 -34 -51 -4 0 -27 30 -50 66 l-43 67 24 44 c29 54 81 115
90 105 4 -4 10 -18 14 -31z m-2245 -33 c32 -82 30 -130 -6 -192 -16 -27 -34
-51 -41 -53 -12 -4 -14 1 -49 97 l-24 65 38 72 c20 40 42 73 47 73 6 0 21 -28
35 -62z m-1180 42 c0 -5 -2 -10 -4 -10 -3 0 -8 5 -11 10 -3 6 -1 10 4 10 6 0
11 -4 11 -10z m2950 -50 c40 -80 40 -131 0 -192 -51 -78 -53 -77 -99 3 -23 39
-41 77 -41 85 0 12 20 49 77 142 7 12 18 22 23 22 5 0 23 -27 40 -60z m-2654
42 c13 -9 18 -128 6 -136 -5 -3 -12 13 -15 37 -4 23 -9 57 -13 75 -6 31 0 39
22 24z m1133 -75 c11 -32 21 -67 21 -79 0 -27 -61 -148 -75 -148 -12 0 -75
146 -75 173 0 10 19 45 41 78 48 70 54 68 88 -24z m253 8 c15 -37 28 -79 28
-93 0 -25 -53 -126 -72 -138 -19 -12 -50 37 -44 68 4 21 1 30 -14 38 -45 24
-46 80 -1 95 11 3 19 15 19 30 0 30 29 78 45 72 6 -2 24 -34 39 -72z m2620 53
c-7 -7 -12 -8 -12 -2 0 14 12 26 19 19 2 -3 -1 -11 -7 -17z m-1603 -62 c17
-32 31 -70 31 -85 0 -30 -74 -151 -93 -151 -13 0 -88 136 -87 158 0 7 15 33
33 57 17 24 40 56 51 71 21 30 25 28 65 -50z m1534 57 c-7 -3 -9 -12 -6 -21 6
-15 5 -15 -10 -3 -18 14 -24 36 -7 26 6 -3 10 -1 10 5 0 6 5 8 12 4 9 -6 9 -9
1 -11z m-2327 -2 c-4 -5 0 -11 6 -14 10 -3 10 -7 -1 -21 -12 -14 -12 -16 1
-11 9 4 20 -7 31 -30 19 -40 22 -85 6 -85 -6 0 -8 -9 -4 -21 5 -15 4 -19 -4
-15 -6 4 -11 24 -12 44 -1 43 -11 73 -24 74 -6 1 -15 14 -22 30 -7 16 -9 26
-4 24 5 -3 11 3 14 14 3 11 8 20 12 20 3 0 4 -4 1 -9z m528 -55 c34 -65 34
-116 -1 -172 -16 -24 -30 -44 -33 -44 -8 0 -71 124 -70 139 0 7 11 34 24 60
14 25 28 55 31 65 7 24 16 15 49 -48z m1461 -14 c-10 -10 -16 -12 -13 -7 3 6
8 19 13 30 5 14 9 16 12 7 3 -8 -3 -21 -12 -30z m485 -2 c28 -55 26 -110 -7
-175 -46 -91 -65 -69 -66 75 -1 67 3 93 16 114 23 35 33 33 57 -14z m-2511
-57 c18 -21 31 -49 31 -64 0 -15 5 -29 12 -31 9 -3 9 -12 -1 -37 -8 -17 -19
-30 -25 -28 -6 2 -28 37 -49 78 -30 60 -35 78 -27 97 13 30 24 28 59 -15z
m-1807 -33 c-2 -16 -8 -27 -13 -24 -11 6 -12 58 -2 67 11 12 20 -12 15 -43z
m158 24 c0 -8 -4 -12 -10 -9 -5 3 -10 13 -10 21 0 8 5 12 10 9 6 -3 10 -13 10
-21z m3745 16 c3 -5 -1 -10 -10 -10 -9 0 -13 5 -10 10 3 6 8 10 10 10 2 0 7
-4 10 -10z m-1865 -16 c0 -8 -19 -13 -24 -6 -3 5 1 9 9 9 8 0 15 -2 15 -3z
m-1117 -43 c-6 -3 -14 -16 -18 -29 -4 -13 -9 -21 -11 -19 -3 3 2 22 12 43 10
24 18 34 21 25 3 -7 1 -16 -4 -20z m2336 -45 c33 -58 38 -97 19 -143 -18 -42
-61 -103 -73 -103 -14 0 -89 131 -88 153 2 24 93 158 103 152 5 -3 23 -30 39
-59z m-2026 -24 c15 -37 27 -80 27 -96 0 -34 -59 -148 -74 -143 -6 2 -26 39
-44 81 l-34 78 33 62 c35 68 48 86 59 86 4 0 19 -30 33 -68z m1778 7 c15 -24
30 -57 33 -74 6 -33 -21 -96 -63 -146 l-26 -30 -25 48 c-14 26 -33 58 -43 70
-12 13 -17 29 -13 41 12 38 87 143 98 140 7 -3 24 -24 39 -49z m420 0 c-2 -40
1 -54 13 -61 9 -5 16 -16 16 -24 0 -8 4 -13 8 -10 13 8 5 -49 -11 -79 l-14
-28 -18 29 c-10 16 -29 46 -42 66 -12 21 -23 41 -23 45 0 8 68 113 73 113 1 0
0 -23 -2 -51z m-1940 -48 c13 -35 18 -67 15 -86 -7 -34 -62 -135 -75 -135 -4
0 -25 38 -46 85 l-37 85 33 52 c18 29 40 61 48 71 15 17 16 17 28 1 7 -10 22
-43 34 -73z m249 28 c46 -93 40 -144 -23 -213 l-36 -39 -21 49 c-12 27 -28 61
-36 75 -17 33 -13 55 22 116 34 60 44 73 55 73 5 0 22 -27 39 -61z m1018 2
c36 -67 39 -97 15 -149 -19 -42 -62 -102 -72 -102 -4 0 -26 34 -50 77 -50 89
-53 72 44 211 9 12 19 22 23 22 4 0 22 -27 40 -59z m-274 11 c39 -61 51 -115
38 -159 -15 -49 -77 -122 -90 -108 -17 17 -82 136 -82 150 0 16 92 155 102
155 4 0 19 -17 32 -38z m-513 9 c-8 -5 -11 -17 -6 -32 5 -19 4 -21 -4 -9 -17
23 -13 50 7 50 13 0 14 -2 3 -9z m2370 -84 c-6 -6 -11 -21 -11 -33 0 -30 -10
-55 -20 -49 -12 8 0 66 18 91 10 12 19 18 21 12 2 -5 -2 -15 -8 -21z m-4272
-33 c-8 -20 -13 -24 -16 -13 -2 8 2 29 8 45 8 20 13 24 16 13 2 -8 -2 -29 -8
-45z m1929 42 c-7 -8 -17 -12 -22 -9 -4 3 -2 9 5 14 22 13 31 11 17 -5z
m-2060 -48 c3 -51 -15 -70 -23 -25 -8 39 -1 72 13 63 4 -2 9 -20 10 -38z
m1978 28 c8 -8 14 -27 14 -43 0 -34 14 -58 28 -49 5 3 12 -5 14 -18 5 -25 -7
-66 -19 -66 -10 0 -83 135 -83 153 0 12 19 37 28 37 2 0 10 -6 18 -14z m249
-16 c-2 -34 -10 -46 -20 -31 -3 6 0 11 7 11 10 0 9 3 -1 9 -12 8 -12 12 -2 25
18 21 18 21 16 -14z m-1902 -85 c6 -36 -1 -75 -13 -75 -4 0 -10 21 -13 48 -4
26 -10 58 -13 72 -7 24 -7 25 13 7 11 -10 23 -33 26 -52z m3112 1 c36 -62 35
-108 -6 -183 -19 -35 -39 -63 -45 -63 -12 0 -41 37 -74 98 l-24 43 22 43 c30
57 81 118 93 111 5 -4 20 -25 34 -49z m-250 -3 c14 -21 30 -55 36 -77 9 -33 7
-45 -16 -91 -33 -68 -50 -75 -72 -30 -18 37 -33 46 -33 19 0 -23 -15 -9 -34
30 -16 34 -16 36 9 72 14 20 25 41 25 46 0 12 42 68 52 68 4 0 19 -17 33 -37z
m465 27 c0 -5 -5 -10 -11 -10 -5 0 -7 5 -4 10 3 6 8 10 11 10 2 0 4 -4 4 -10z
m-2243 -56 c40 -88 40 -119 1 -193 -18 -36 -37 -66 -43 -68 -11 -3 -76 142
-75 170 0 22 71 147 83 147 4 0 20 -25 34 -56z m247 -3 c14 -27 28 -69 31 -93
5 -38 1 -54 -28 -109 -19 -35 -40 -64 -46 -64 -7 0 -29 37 -48 82 -38 87 -38
85 0 148 16 26 60 85 64 85 1 0 14 -22 27 -49z m275 -25 c17 -36 31 -78 31
-93 0 -34 -68 -153 -87 -153 -7 0 -31 36 -53 81 -45 91 -46 83 23 181 22 32
43 55 47 53 4 -3 22 -34 39 -69z m998 41 c56 -83 57 -134 2 -216 -22 -34 -44
-59 -48 -57 -10 6 -91 143 -91 153 1 14 100 153 109 153 3 0 16 -15 28 -33z
m-651 10 c13 16 13 15 3 -9 -14 -32 -24 -35 -33 -12 -10 26 -6 40 5 21 10 -18
11 -18 25 0z m409 -50 c19 -35 35 -74 35 -87 0 -30 -32 -95 -69 -139 l-28 -34
-47 84 c-47 83 -48 84 -31 114 25 47 84 125 95 125 5 0 25 -29 45 -63z m899 8
c-3 -6 0 -25 7 -41 15 -38 28 -104 20 -103 -11 1 -71 101 -71 118 0 27 31 65
40 50 5 -7 6 -17 4 -24z m776 -13 c0 -24 -34 -112 -43 -112 -9 0 -6 77 3 106
14 42 40 46 40 6z m-2190 -82 c0 -3 -9 9 -20 25 -11 17 -20 41 -19 55 0 19 5
12 19 -25 11 -27 20 -52 20 -55z m1501 27 c-15 -15 -25 -2 -16 20 5 10 9 23
10 28 5 28 9 27 12 -4 3 -18 0 -38 -6 -44z m-3606 -35 c-3 -13 -10 -20 -15
-17 -12 7 -13 88 -3 99 11 10 24 -54 18 -82z m2280 39 c-3 -5 -1 -12 5 -16 5
-3 10 -19 10 -35 0 -16 5 -32 10 -35 6 -4 8 -11 5 -16 -4 -5 -2 -9 4 -9 5 0
13 5 16 10 3 6 11 10 16 10 6 0 4 -7 -5 -15 -8 -9 -13 -22 -10 -30 4 -8 1 -15
-6 -15 -6 0 -8 4 -5 10 3 6 2 10 -3 10 -5 0 -17 16 -26 35 -9 19 -21 37 -26
40 -14 8 -12 39 2 53 14 14 21 16 13 3z m-230 -47 c14 -6 10 -28 -8 -52 -8
-11 -15 -6 -28 20 -20 36 -24 68 -10 68 5 0 12 -6 14 -12 3 -8 6 -4 8 7 1 17
2 17 6 -3 3 -13 11 -26 18 -28z m-1712 -43 c14 -54 5 -151 -14 -151 -23 0 -45
177 -25 208 12 20 23 4 39 -57z m3143 -16 c31 -71 30 -103 -2 -162 -45 -82
-46 -82 -93 -13 -22 34 -41 72 -41 83 0 28 79 147 97 147 8 0 25 -25 39 -55z
m178 19 c3 -8 2 -12 -4 -9 -6 3 -10 10 -10 16 0 14 7 11 14 -7z m-1598 -36
c-18 -26 -22 -17 -5 14 6 11 13 17 16 15 3 -3 -2 -16 -11 -29z m131 -35 c-4
-3 0 -15 10 -25 15 -17 15 -18 -5 -18 -17 0 -21 5 -18 23 6 29 5 27 13 27 3 0
3 -3 0 -7z m-2117 -38 c0 -14 -4 -25 -10 -25 -5 0 -10 11 -10 25 0 14 5 25 10
25 6 0 10 -11 10 -25z m2130 -36 c0 -6 -4 -7 -10 -4 -5 3 -10 11 -10 16 0 6 5
7 10 4 6 -3 10 -11 10 -16z m-29 -35 c4 -16 7 -23 8 -16 0 6 5 12 10 12 5 0 4
-16 -2 -37 -11 -34 -12 -35 -18 -12 -4 13 -8 17 -8 9 -2 -21 -41 26 -41 49 0
41 42 36 51 -5z m30 -67 c-10 -9 -11 -8 -5 6 3 10 9 15 12 12 3 -3 0 -11 -7
-18z"/>
<path d="M9126 1760 c-28 -10 -6 -17 29 -10 25 5 27 7 10 11 -11 3 -29 3 -39
-1z"/>
<path d="M9220 1760 c-9 -6 -10 -10 -3 -10 6 0 15 5 18 10 8 12 4 12 -15 0z"/>
<path d="M9047 1749 c7 -7 15 -10 18 -7 3 3 -2 9 -12 12 -14 6 -15 5 -6 -5z"/>
<path d="M8980 1741 c0 -4 11 -6 25 -3 14 2 25 6 25 8 0 2 -11 4 -25 4 -14 0
-25 -4 -25 -9z"/>
<path d="M7550 1730 c0 -5 5 -10 10 -10 6 0 10 5 10 10 0 6 -4 10 -10 10 -5 0
-10 -4 -10 -10z"/>
<path d="M9833 1417 c5 -15 37 -22 37 -9 0 5 -9 12 -21 15 -13 3 -19 1 -16 -6z"/>
<path d="M9046 1411 c-4 -6 -3 -11 2 -11 6 0 8 -10 6 -22 -4 -22 -4 -21 6 1
11 25 -2 53 -14 32z"/>
<path d="M8537 1379 c4 -13 8 -18 11 -10 2 7 -1 18 -6 23 -8 8 -9 4 -5 -13z"/>
<path d="M9412 800 c0 -14 2 -19 5 -12 2 6 2 18 0 25 -3 6 -5 1 -5 -13z"/>
<path d="M8856 351 c-3 -5 2 -15 12 -22 15 -12 16 -12 5 2 -7 9 -10 19 -6 22
3 4 4 7 0 7 -3 0 -8 -4 -11 -9z"/>
<path d="M9900 8490 c0 -5 5 -10 10 -10 6 0 10 5 10 10 0 6 -4 10 -10 10 -5 0
-10 -4 -10 -10z"/>
<path d="M10071 8354 c0 -11 3 -14 6 -6 3 7 2 16 -1 19 -3 4 -6 -2 -5 -13z"/>
<path d="M10051 8304 c0 -11 3 -14 6 -6 3 7 2 16 -1 19 -3 4 -6 -2 -5 -13z"/>
<path d="M10190 8290 c0 -5 7 -10 15 -10 8 0 15 5 15 10 0 6 -7 10 -15 10 -8
0 -15 -4 -15 -10z"/>
<path d="M10155 8269 c-4 -6 -5 -12 -2 -15 2 -3 7 2 10 11 7 17 1 20 -8 4z"/>
<path d="M10150 8201 c0 -10 19 -25 25 -20 1 2 -3 10 -11 17 -8 7 -14 8 -14 3z"/>
<path d="M10217 8169 c7 -7 15 -10 18 -7 3 3 -2 9 -12 12 -14 6 -15 5 -6 -5z"/>
<path d="M10300 8130 c0 -5 12 -10 28 -10 21 0 24 2 12 10 -20 13 -40 13 -40
0z"/>
<path d="M10363 8070 c0 -25 2 -35 4 -22 2 12 2 32 0 45 -2 12 -4 2 -4 -23z"/>
<path d="M10338 8005 c2 -14 8 -25 13 -25 14 0 11 26 -5 39 -11 9 -12 6 -8
-14z"/>
<path d="M10448 7979 c-23 -24 -23 -29 2 -29 11 0 20 6 20 13 0 8 4 7 10 -3
11 -17 13 -1 4 24 -8 20 -15 19 -36 -5z"/>
<path d="M10518 7893 c7 -3 16 -2 19 1 4 3 -2 6 -13 5 -11 0 -14 -3 -6 -6z"/>
<path d="M10556 7837 c3 -10 9 -15 12 -12 3 3 0 11 -7 18 -10 9 -11 8 -5 -6z"/>
<path d="M10555 7800 c-3 -5 -1 -10 4 -10 6 0 11 5 11 10 0 6 -2 10 -4 10 -3
0 -8 -4 -11 -10z"/>
<path d="M10535 7770 c-3 -5 -2 -10 4 -10 5 0 13 5 16 10 3 6 2 10 -4 10 -5 0
-13 -4 -16 -10z"/>
<path d="M10650 7750 c0 -5 5 -10 11 -10 5 0 7 5 4 10 -3 6 -8 10 -11 10 -2 0
-4 -4 -4 -10z"/>
<path d="M10690 7731 c0 -5 11 -8 25 -8 14 0 25 3 25 8 0 5 -11 9 -25 9 -14 0
-25 -4 -25 -9z"/>
<path d="M10708 7673 c17 -7 15 -30 -3 -37 -8 -3 -15 -14 -15 -25 0 -14 5 -19
16 -14 10 4 12 9 5 16 -7 7 -5 14 6 22 18 13 11 45 -9 44 -10 0 -10 -2 0 -6z"/>
<path d="M10630 7620 c0 -5 7 -7 15 -4 8 4 15 8 15 10 0 2 -7 4 -15 4 -8 0
-15 -4 -15 -10z"/>
<path d="M10640 7584 c0 -8 5 -12 10 -9 6 4 8 11 5 16 -9 14 -15 11 -15 -7z"/>
<path d="M10711 7564 c0 -11 3 -14 6 -6 3 7 2 16 -1 19 -3 4 -6 -2 -5 -13z"/>
<path d="M10880 7534 c0 -8 5 -12 10 -9 6 3 10 10 10 16 0 5 -4 9 -10 9 -5 0
-10 -7 -10 -16z"/>
<path d="M10682 7450 c0 -14 2 -19 5 -12 2 6 2 18 0 25 -3 6 -5 1 -5 -13z"/>
<path d="M10780 7461 c0 -6 5 -13 10 -16 6 -3 10 1 10 9 0 9 -4 16 -10 16 -5
0 -10 -4 -10 -9z"/>
<path d="M10826 7455 c4 -8 12 -15 19 -15 7 0 15 7 19 15 4 11 -1 15 -19 15
-18 0 -23 -4 -19 -15z"/>
<path d="M10770 7360 c0 -5 5 -10 10 -10 6 0 10 5 10 10 0 6 -4 10 -10 10 -5
0 -10 -4 -10 -10z"/>
<path d="M10870 7279 c0 -5 5 -7 10 -4 6 3 10 8 10 11 0 2 -4 4 -10 4 -5 0
-10 -5 -10 -11z"/>
<path d="M10940 7255 c0 -8 5 -15 10 -15 6 0 10 7 10 15 0 8 -4 15 -10 15 -5
0 -10 -7 -10 -15z"/>
<path d="M10975 7180 c11 -5 30 -9 43 -9 21 -1 22 -4 16 -51 -5 -37 -3 -50 6
-50 8 0 10 8 6 25 -4 14 -2 34 4 45 16 29 -9 50 -57 49 -30 0 -34 -2 -18 -9z"/>
<path d="M10973 7153 c9 -2 23 -2 30 0 6 3 -1 5 -18 5 -16 0 -22 -2 -12 -5z"/>
<path d="M11105 7120 c-3 -11 -2 -28 4 -37 8 -15 10 -11 11 20 0 41 -5 47 -15
17z"/>
<path d="M10980 7092 c0 -10 6 -26 13 -36 12 -17 14 -17 20 -2 4 9 2 16 -3 16
-6 0 -10 9 -10 20 0 11 -4 20 -10 20 -5 0 -10 -8 -10 -18z"/>
<path d="M10938 6993 c7 -3 16 -2 19 1 4 3 -2 6 -13 5 -11 0 -14 -3 -6 -6z"/>
<path d="M11013 6950 c0 -25 2 -35 4 -22 2 12 2 32 0 45 -2 12 -4 2 -4 -23z"/>
<path d="M10956 6896 c3 -8 12 -12 20 -9 21 8 17 23 -6 23 -13 0 -18 -5 -14
-14z"/>
<path d="M10918 6876 c-16 -12 -15 -13 11 -12 22 1 27 4 19 14 -6 6 -11 12
-12 12 0 0 -9 -7 -18 -14z"/>
<path d="M10926 6842 c-3 -6 1 -13 10 -16 23 -9 28 -2 10 13 -8 7 -17 8 -20 3z"/>
<path d="M10870 6836 c0 -2 9 -6 20 -9 11 -3 18 -1 14 4 -5 9 -34 13 -34 5z"/>
<path d="M10898 6793 c7 -3 16 -2 19 1 4 3 -2 6 -13 5 -11 0 -14 -3 -6 -6z"/>
<path d="M10898 6763 c7 -3 16 -2 19 1 4 3 -2 6 -13 5 -11 0 -14 -3 -6 -6z"/>
<path d="M10796 6747 c3 -10 9 -15 12 -12 3 3 0 11 -7 18 -10 9 -11 8 -5 -6z"/>
<path d="M10715 6710 c-3 -6 1 -7 9 -4 18 7 21 14 7 14 -6 0 -13 -4 -16 -10z"/>
<path d="M10768 6703 c7 -3 16 -2 19 1 4 3 -2 6 -13 5 -11 0 -14 -3 -6 -6z"/>
<path d="M10611 6670 c-1 -20 -3 -22 -12 -10 -8 12 -9 11 -4 -6 3 -14 -1 -28
-10 -38 -9 -9 -14 -16 -10 -16 3 0 1 -9 -5 -20 -6 -11 -7 -20 -3 -20 12 0 56
107 50 122 -3 7 -6 2 -6 -12z"/>
<path d="M10689 6673 c-1 -10 -2 -25 -3 -35 -1 -9 -5 -20 -9 -25 -5 -4 -8 -3
-7 2 1 6 2 22 1 38 -2 46 -27 31 -48 -30 -69 -196 -85 -241 -98 -268 -7 -16
-20 -52 -29 -78 -9 -26 -23 -59 -32 -72 -9 -14 -12 -25 -8 -25 5 0 2 -5 -6
-11 -11 -8 -12 -12 -2 -16 6 -2 12 -9 12 -14 0 -6 -4 -8 -9 -4 -5 3 -12 1 -16
-5 -3 -5 -3 -10 2 -10 4 0 8 -14 9 -30 1 -17 -1 -28 -4 -25 -3 3 -11 0 -19 -6
-16 -14 -18 -49 -2 -49 5 0 7 -5 4 -10 -4 -6 -10 -8 -15 -5 -5 3 -12 0 -15 -6
-5 -7 -15 -3 -31 12 l-23 22 -30 -64 c-16 -35 -38 -84 -49 -109 -70 -156 -101
-218 -111 -224 -6 -4 -9 -12 -5 -17 3 -5 0 -17 -8 -27 -7 -9 4 -3 25 12 20 16
37 25 37 22 0 -4 8 -3 17 2 21 12 58 -39 81 -112 9 -28 22 -57 29 -64 6 -7 22
-45 35 -85 27 -87 31 -94 68 -102 21 -5 35 -1 49 12 23 22 71 90 71 102 0 5
10 19 23 32 13 13 42 50 66 81 l41 58 -3 260 -4 261 23 16 c13 8 24 20 24 27
0 8 -3 8 -8 0 -13 -19 -42 -25 -42 -9 0 8 3 14 8 14 19 -3 26 2 13 10 -17 11
-23 74 -7 68 7 -3 11 24 11 84 0 82 -6 107 -18 77 -3 -7 -6 -3 -6 10 -1 12 4
22 10 22 6 0 8 7 5 17 -4 9 -1 20 6 25 10 8 10 11 1 15 -8 3 -13 23 -13 50 0
41 1 44 23 37 l22 -6 -21 18 c-19 17 -21 26 -15 76 1 4 9 4 19 1 16 -7 16 -6
-1 11 -11 12 -15 26 -11 42 3 13 3 24 0 24 -3 0 -7 -8 -7 -17z m-83 -674 c4
-8 3 -9 -4 -5 -7 4 -12 2 -12 -4 0 -6 -4 -8 -10 -5 -5 3 -19 1 -30 -5 -11 -6
-20 -9 -20 -6 0 2 -2 11 -5 18 -7 18 70 24 81 7z"/>
<path d="M10566 6672 c-2 -4 -1 -14 4 -22 7 -11 9 -9 7 8 -1 24 -3 26 -11 14z"/>
<path d="M10740 6670 c-10 -6 -4 -8 22 -4 32 6 36 4 34 -12 -2 -11 -1 -13 1
-6 3 6 10 12 16 12 7 0 6 4 -3 10 -19 12 -51 12 -70 0z"/>
<path d="M10785 6600 c-16 -18 -16 -20 -2 -20 10 0 17 6 17 14 0 8 6 17 13 19
7 3 7 6 1 6 -6 1 -19 -8 -29 -19z"/>
<path d="M10874 6604 c9 -8 20 -12 26 -9 15 9 2 25 -21 25 -19 0 -19 -1 -5
-16z"/>
<path d="M9813 6592 c-8 -6 -25 -62 -28 -97 0 -5 -6 -19 -13 -30 -10 -18 -11
-19 -12 -2 0 21 -22 18 -28 -4 -3 -11 -2 -11 7 1 9 12 11 8 10 -20 -1 -46 9
-151 15 -157 3 -3 -4 -14 -14 -26 -11 -11 -16 -25 -13 -30 3 -6 10 -1 14 11
10 28 14 28 16 0 0 -13 4 -43 8 -68 4 -29 3 -40 -3 -32 -7 11 -10 11 -15 -2
-4 -9 -2 -16 4 -16 6 0 9 -6 6 -12 -2 -7 3 -18 12 -25 15 -11 14 -12 -1 -13
-14 0 -14 -4 -5 -24 8 -17 14 -21 20 -13 5 7 6 -3 2 -23 -13 -69 -14 -91 -5
-85 5 3 11 1 15 -5 3 -6 -1 -13 -9 -16 -21 -8 -20 -24 1 -24 15 0 14 -2 -3
-15 -12 -10 -13 -13 -3 -10 8 3 23 -3 33 -14 16 -18 16 -20 -2 -32 -10 -8 -24
-23 -30 -34 -6 -11 -12 -14 -12 -7 0 17 -18 15 -37 -4 -13 -13 -18 -13 -25 -2
-7 10 -10 9 -19 -4 -15 -26 -50 -22 -90 12 l-36 29 -13 -75 c-9 -61 -15 -74
-27 -70 -13 5 -14 4 -4 -8 9 -11 9 -20 2 -34 -6 -11 -8 -22 -4 -25 3 -4 1 -12
-5 -19 -53 -64 -21 -476 40 -509 12 -6 18 -6 18 1 0 5 5 9 12 7 6 -1 22 14 35
33 13 19 38 53 56 74 18 21 36 46 41 55 5 9 20 26 34 37 15 14 22 27 17 34 -5
9 -4 11 4 6 14 -9 71 12 71 26 0 6 7 8 15 4 10 -4 15 1 16 17 1 14 3 16 6 6 2
-9 16 -22 31 -30 32 -15 101 -88 102 -106 0 -19 30 -16 30 3 0 8 -13 71 -30
139 -16 69 -27 133 -24 142 4 14 3 15 -4 5 -6 -10 -12 2 -17 40 -5 29 -9 55
-10 58 -22 70 -26 96 -16 117 16 34 14 41 -11 46 -22 4 -22 4 2 6 14 1 32 6
40 11 11 7 5 10 -25 11 l-40 1 32 10 c27 9 34 17 38 47 3 20 9 48 14 64 6 17
6 27 0 27 -6 0 -7 5 -3 11 4 7 9 32 11 56 2 25 10 52 18 60 21 20 47 73 37 73
-4 0 -13 -5 -19 -11 -9 -9 -11 -5 -9 14 3 23 1 24 -20 15 -13 -6 -24 -15 -24
-21 0 -5 -7 -7 -15 -3 -10 4 -17 -6 -25 -37 -6 -23 -22 -70 -36 -105 -13 -34
-24 -70 -25 -80 -1 -20 -26 55 -39 118 -5 25 -21 99 -35 165 -24 116 -31 176
-15 125 7 -23 8 -23 11 10 1 19 1 49 0 65 -1 21 1 26 7 16 7 -9 11 -3 14 23 2
20 0 36 -4 36 -5 0 -4 9 2 19 13 26 14 82 0 61 -8 -13 -10 -13 -10 2 0 9 5 18
12 20 7 3 8 7 2 11 -5 3 -15 3 -21 -1z m159 -744 c-7 -7 -12 -8 -12 -2 0 14
12 26 19 19 2 -3 -1 -11 -7 -17z m-30 -110 c-7 -7 -12 -8 -12 -2 0 14 12 26
19 19 2 -3 -1 -11 -7 -17z"/>
<path d="M6366 6538 c7 -56 13 -74 15 -42 1 10 11 -44 24 -121 13 -77 31 -180
40 -230 9 -49 19 -108 21 -129 3 -22 10 -48 16 -59 8 -16 7 -19 -4 -14 -11 4
-15 -3 -15 -24 0 -15 4 -26 9 -23 4 3 11 -2 14 -10 3 -9 11 -13 17 -9 6 3 7 1
3 -6 -6 -9 -11 -9 -22 0 -11 9 -14 8 -14 -5 0 -9 5 -16 10 -16 6 0 10 -13 10
-30 0 -16 -4 -30 -10 -30 -5 0 -7 -7 -4 -15 3 -8 11 -13 17 -12 15 3 21 -33 8
-46 -7 -7 -8 -2 -5 14 4 21 3 22 -5 4 -6 -13 -5 -23 3 -30 11 -9 36 -59 36
-72 0 -3 -7 -3 -15 1 -8 3 -15 1 -15 -4 0 -6 5 -10 11 -10 5 0 7 -4 4 -10 -3
-5 -1 -10 4 -10 6 0 11 -12 11 -27 0 -19 3 -24 9 -15 7 11 9 10 14 -3 4 -9 3
-13 -3 -10 -6 3 -10 -1 -10 -10 0 -9 3 -14 8 -12 4 3 7 -5 7 -18 0 -13 -3 -21
-6 -19 -13 7 -4 -51 9 -65 10 -10 10 -16 1 -27 -8 -10 -8 -14 0 -14 6 0 11 -6
11 -14 0 -7 11 -25 25 -40 14 -15 25 -29 25 -32 0 -3 6 -11 13 -19 6 -7 22
-27 35 -43 24 -32 60 -44 87 -30 9 6 24 29 34 51 16 37 17 57 9 167 -7 105
-33 371 -42 432 -1 10 -6 21 -11 25 -4 5 -5 2 0 -6 5 -9 4 -12 -3 -7 -6 4 -9
13 -5 21 3 9 0 21 -6 29 -6 7 -8 16 -4 19 3 4 3 7 -2 7 -4 0 -14 -8 -22 -17
-9 -12 -8 -6 3 17 11 23 13 35 5 38 -6 2 -11 12 -11 22 0 10 -6 25 -14 32 -17
17 -56 97 -56 114 0 7 -6 19 -13 26 -7 7 -22 33 -32 58 -11 25 -57 116 -103
203 -65 122 -87 157 -103 157 -18 0 -19 -5 -13 -52z m147 -728 c-3 -12 -8 -19
-11 -16 -5 6 5 36 12 36 2 0 2 -9 -1 -20z m26 -140 c11 -24 11 -24 -3 -6 -9
11 -16 24 -16 30 0 12 5 7 19 -24z m71 -330 c12 -23 12 -24 -3 -11 -10 7 -17
20 -17 29 0 18 3 16 20 -18z"/>
<path d="M10770 6540 c-12 -8 -11 -10 8 -10 12 0 22 5 22 10 0 13 -11 13 -30
0z"/>
<path d="M10750 6496 c0 -9 7 -16 16 -16 17 0 14 22 -4 28 -7 2 -12 -3 -12
-12z"/>
<path d="M4040 6497 c0 -10 72 -251 89 -297 11 -30 30 -88 42 -129 13 -41 25
-69 27 -62 3 9 8 9 20 -1 13 -11 14 -11 7 1 -6 11 -4 13 9 8 10 -4 20 -7 22
-7 2 0 4 -7 4 -15 0 -19 24 -20 39 -2 32 40 6 129 -65 223 -13 17 -24 37 -24
45 0 8 -17 34 -37 57 -21 22 -58 73 -82 112 -39 62 -51 78 -51 67z"/>
<path d="M10510 6485 c0 -5 4 -16 9 -23 6 -11 10 -10 15 4 3 9 4 19 1 22 -3 3
-5 -1 -5 -9 0 -11 -2 -11 -10 1 -5 8 -10 11 -10 5z"/>
<path d="M10500 6451 c0 -6 4 -13 10 -16 6 -3 7 1 4 9 -7 18 -14 21 -14 7z"/>
<path d="M10775 6440 c-4 -6 -4 -29 0 -50 4 -26 3 -40 -4 -40 -22 0 -10 -18
14 -22 17 -4 25 -1 25 8 0 8 5 14 10 14 16 0 12 53 -6 78 -17 24 -29 28 -39
12z"/>
<path d="M6779 6403 c-13 -14 -19 -23 -12 -20 7 5 9 1 7 -11 -4 -14 18 -162
55 -354 4 -27 5 -48 2 -48 -4 0 -20 73 -35 163 -16 89 -34 182 -42 207 l-13
45 6 -70 c4 -38 7 -100 7 -137 0 -38 2 -68 6 -68 3 0 5 -17 4 -37 0 -21 4 -41
10 -45 8 -5 7 -8 -1 -8 -7 0 -13 -10 -13 -22 0 -19 2 -20 11 -8 8 11 9 2 5
-34 -5 -41 -3 -51 15 -67 11 -9 21 -21 22 -26 1 -4 7 -6 12 -4 6 2 19 5 30 7
l20 4 -20 -9 c-17 -8 -15 -10 15 -11 19 -1 47 -3 61 -4 29 -1 72 -33 63 -47
-3 -5 0 -9 5 -9 16 0 13 16 -5 34 -17 17 -10 19 21 6 11 -5 15 -9 10 -9 -12
-1 -13 -35 -1 -68 8 -26 17 -28 34 -11 8 8 14 4 23 -18 6 -16 11 -37 11 -46 0
-9 6 -19 14 -22 8 -3 14 -11 14 -17 0 -8 -4 -9 -13 0 -8 6 -18 7 -22 3 -5 -4
-5 0 0 8 5 8 5 12 0 8 -9 -9 -35 9 -35 24 0 6 6 6 14 -1 10 -8 16 -9 21 -1 3
5 -1 10 -9 10 -26 0 -30 2 -50 29 -26 35 -41 50 -30 30 22 -38 89 -134 96
-137 5 -2 6 -8 3 -13 -7 -10 13 -50 23 -46 4 1 7 -2 7 -8 0 -5 -5 -9 -12 -9
-6 1 -9 -5 -6 -12 3 -8 9 -11 14 -8 5 3 9 1 9 -5 0 -5 -4 -11 -10 -13 -6 -2
-6 -8 0 -18 8 -13 10 -12 10 3 0 9 5 17 11 17 8 0 8 5 -1 15 -9 10 -9 15 -1
15 12 0 13 -3 15 -50 1 -18 -3 -29 -10 -26 -7 3 -9 -5 -6 -21 4 -20 2 -24 -8
-18 -9 6 -11 4 -5 -5 6 -10 12 -7 25 10 11 15 19 19 24 11 4 -6 4 -11 -1 -11
-4 0 0 -5 10 -11 9 -6 15 -15 11 -20 -7 -12 27 -40 39 -32 5 3 4 -5 -3 -17
-11 -20 -10 -21 12 -15 17 5 19 4 8 -4 -13 -9 -12 -11 2 -16 10 -4 14 -14 11
-26 -3 -12 0 -19 8 -19 11 0 11 -2 1 -9 -10 -6 -9 -11 4 -22 16 -12 17 -12 9
1 -7 13 -6 13 7 2 34 -27 55 5 49 73 -1 11 -2 32 -1 47 0 14 -8 34 -17 44 -10
9 -18 30 -18 45 0 15 -5 32 -9 36 -5 4 -6 3 -2 -4 3 -6 1 -15 -5 -18 -7 -5 -9
1 -7 16 1 13 -4 31 -12 39 -9 8 -11 13 -5 10 6 -3 3 3 -7 12 -10 9 -24 19 -31
21 -8 3 -6 10 8 21 19 15 19 15 1 16 -11 0 -16 3 -13 7 4 3 -1 12 -11 19 -14
11 -14 15 -4 22 11 7 9 11 -8 15 -19 5 -20 8 -10 28 11 20 10 21 -8 17 -19 -5
-25 12 -10 27 7 8 -14 55 -25 55 -5 0 -5 4 -2 10 3 5 -6 21 -20 36 -14 14 -23
29 -20 34 3 5 -1 23 -10 39 -8 17 -15 35 -15 41 0 27 23 -9 80 -124 40 -80 67
-123 76 -122 8 1 28 17 44 34 23 26 28 38 24 69 -9 77 -36 208 -49 241 -13 29
-18 32 -37 26 -13 -5 -33 -7 -45 -6 -59 6 -90 6 -118 -1 -30 -7 -31 -6 -78 85
-27 51 -71 137 -99 191 -28 53 -56 97 -63 97 -6 0 -22 -12 -36 -27z m58 -475
c-3 -7 -5 -2 -5 12 0 14 2 19 5 13 2 -7 2 -19 0 -25z m33 -8 c0 -5 -5 -10 -11
-10 -5 0 -7 5 -4 10 3 6 8 10 11 10 2 0 4 -4 4 -10z m211 -102 l12 -23 -24 20
c-13 11 -26 21 -28 22 -2 2 3 3 12 3 9 0 22 -10 28 -22z m39 -16 c0 -8 -1 -13
-3 -11 -1 2 -9 12 -16 22 -12 15 -12 17 3 11 9 -3 16 -13 16 -22z m-50 -18 c0
-2 -9 0 -20 6 -11 6 -20 13 -20 16 0 2 9 0 20 -6 11 -6 20 -13 20 -16z m-20
-35 c0 -6 -4 -7 -10 -4 -5 3 -10 11 -10 16 0 6 5 7 10 4 6 -3 10 -11 10 -16z
m80 -146 c-1 -18 -18 -35 -24 -24 -4 6 -4 16 -1 21 7 12 25 13 25 3z m15 -23
c3 -5 1 -10 -4 -10 -6 0 -11 5 -11 10 0 6 2 10 4 10 3 0 8 -4 11 -10z m61
-139 c-3 -4 1 -17 9 -27 22 -28 18 -37 -6 -13 -18 18 -20 49 -4 49 4 0 4 -4 1
-9z m99 -101 c10 -11 16 -20 13 -20 -3 0 -13 9 -23 20 -10 11 -16 20 -13 20 3
0 13 -9 23 -20z"/>
<path d="M10497 6413 c-4 -3 -7 -11 -7 -17 0 -6 5 -5 12 2 6 6 9 14 7 17 -3 3
-9 2 -12 -2z"/>
<path d="M6382 6385 c0 -16 2 -22 5 -12 2 9 2 23 0 30 -3 6 -5 -1 -5 -18z"/>
<path d="M5102 6380 c0 -14 2 -19 5 -12 2 6 2 18 0 25 -3 6 -5 1 -5 -13z"/>
<path d="M10710 6366 c0 -19 4 -23 20 -19 23 6 25 14 8 31 -18 18 -28 14 -28
-12z"/>
<path d="M10459 6324 c-5 -15 -8 -29 -5 -31 2 -2 8 10 14 26 13 38 5 41 -9 5z"/>
<path d="M9620 6315 c0 -13 10 -34 23 -45 l22 -21 9 37 c9 39 -1 54 -36 54
-12 0 -18 -8 -18 -25z"/>
<path d="M10830 6304 c0 -19 7 -42 15 -50 13 -14 15 -14 15 0 0 9 -4 16 -8 16
-4 0 -6 16 -4 35 3 21 0 35 -7 35 -6 0 -11 -16 -11 -36z"/>
<path d="M6397 6245 c3 -49 9 -94 12 -100 4 -5 7 -29 6 -52 -1 -24 2 -43 6
-43 5 0 6 -12 3 -27 -3 -17 1 -36 10 -48 15 -20 15 -19 16 5 0 14 -7 66 -15
115 -9 50 -18 108 -21 130 -12 96 -23 108 -17 20z"/>
<path d="M11588 6319 c-17 -9 -72 -117 -84 -163 -3 -15 -10 -29 -15 -32 -5 -3
-9 -16 -9 -29 0 -13 -4 -26 -10 -30 -5 -3 -7 -11 -4 -18 2 -7 -4 -24 -16 -37
-11 -13 -20 -27 -20 -31 0 -4 -7 -15 -17 -24 -12 -12 -16 -36 -17 -90 -1 -40
2 -76 6 -80 6 -6 32 18 66 60 21 27 45 91 77 210 9 33 20 74 25 90 45 159 49
192 18 174z"/>
<path d="M10760 6300 c0 -5 9 -10 20 -10 11 0 20 5 20 10 0 6 -9 10 -20 10
-11 0 -20 -4 -20 -10z"/>
<path d="M4313 6285 c-7 -8 -13 -33 -13 -57 0 -39 27 -165 45 -211 6 -14 4
-16 -11 -10 -14 5 -12 0 7 -18 18 -17 31 -47 44 -99 21 -87 51 -150 71 -150 8
0 14 -5 14 -10 0 -7 6 -7 20 0 22 12 27 1 8 -19 -11 -11 -10 -12 1 -6 11 6 13
4 8 -9 -6 -14 -3 -16 13 -11 15 5 18 3 14 -9 -4 -11 0 -16 15 -16 24 0 28 -15
6 -24 -8 -3 -15 -10 -15 -17 0 -6 7 -9 15 -5 13 5 14 2 4 -17 -11 -19 -10 -20
3 -10 11 10 17 10 26 1 18 -18 14 -30 -6 -24 -16 5 -18 2 -14 -24 2 -16 11
-35 18 -41 12 -10 13 -9 8 5 -3 9 -2 16 4 16 16 0 21 -38 6 -51 -18 -14 -18
-24 0 -42 9 -9 11 -19 5 -28 -14 -23 -10 -32 11 -26 11 3 20 1 20 -4 0 -5 3
-8 8 -7 13 4 86 -24 137 -52 28 -15 56 -25 63 -23 6 3 12 -2 12 -11 0 -9 7
-16 16 -16 8 0 12 5 9 10 -3 6 -1 10 4 10 6 0 11 -4 11 -10 0 -20 31 -9 41 14
14 30 2 187 -12 165 -7 -11 -9 -10 -9 4 0 9 -9 25 -19 34 -11 9 -18 20 -15 25
3 4 -2 8 -11 8 -9 0 -30 10 -48 22 -18 13 -34 24 -37 26 -2 2 2 7 10 12 12 8
10 10 -9 10 -17 0 -22 -4 -17 -16 3 -9 2 -12 -5 -9 -6 4 -8 14 -4 23 7 20 -53
142 -71 142 -14 0 -27 28 -18 41 5 9 -10 13 -30 10 -5 -1 -4 5 4 13 7 9 8 16
3 16 -13 0 -9 48 5 62 16 16 15 28 -3 28 -8 0 -15 4 -15 8 0 14 -211 324 -240
354 -33 33 -40 34 -41 11 0 -14 -3 -13 -11 5 -13 25 -18 27 -35 7z m407 -630
c11 -13 10 -14 -4 -9 -9 3 -16 10 -16 15 0 13 6 11 20 -6z m74 -240 c3 -8 1
-15 -4 -15 -6 0 -10 7 -10 15 0 8 2 15 4 15 2 0 6 -7 10 -15z"/>
<path d="M10301 6284 c0 -11 3 -14 6 -6 3 7 2 16 -1 19 -3 4 -6 -2 -5 -13z"/>
<path d="M10723 6273 c9 -2 23 -2 30 0 6 3 -1 5 -18 5 -16 0 -22 -2 -12 -5z"/>
<path d="M4446 6258 c11 -19 156 -210 174 -229 23 -24 116 -131 139 -159 11
-14 20 -20 21 -13 0 6 -4 14 -9 17 -5 3 -12 17 -15 31 -6 22 -59 105 -162 250
-80 112 -83 115 -120 115 -25 0 -33 -3 -28 -12z"/>
<path d="M10413 6239 c0 -13 -3 -33 -7 -44 -4 -11 2 -3 14 18 12 22 19 41 16
45 -3 3 -6 -1 -6 -9 0 -12 -2 -12 -9 0 -7 10 -9 8 -8 -10z"/>
<path d="M10804 6238 c-4 -7 -9 -24 -10 -38 l-1 -25 10 28 c6 15 14 27 19 27
4 0 8 5 8 10 0 14 -17 13 -26 -2z"/>
<path d="M10240 6213 c0 -11 -4 -23 -9 -28 -12 -14 -22 -85 -11 -85 5 0 13 19
19 43 l10 42 -5 -47 c-7 -64 11 -62 23 2 8 40 7 50 -3 50 -7 0 -11 6 -8 14 3
8 1 17 -5 21 -6 3 -11 -2 -11 -12z"/>
<path d="M10713 6195 c1 -34 1 -34 19 -15 22 24 22 27 -1 39 -17 10 -19 7 -18
-24z"/>
<path d="M9721 6198 c0 -9 -4 -25 -7 -35 -5 -17 -5 -17 6 0 6 10 9 25 7 35 -4
15 -5 15 -6 0z"/>
<path d="M10760 6176 c0 -9 5 -16 10 -16 6 0 10 4 10 9 0 6 -4 13 -10 16 -5 3
-10 -1 -10 -9z"/>
<path d="M10380 6146 c-15 -42 -11 -55 6 -17 8 19 12 36 9 39 -2 3 -9 -7 -15
-22z"/>
<path d="M3995 6136 c10 -14 19 -26 22 -26 7 0 -17 39 -28 46 -6 3 -3 -5 6
-20z"/>
<path d="M10685 6150 c3 -5 8 -10 11 -10 2 0 4 5 4 10 0 6 -5 10 -11 10 -5 0
-7 -4 -4 -10z"/>
<path d="M10723 6145 c-19 -21 -16 -27 7 -13 11 7 20 16 20 20 0 12 -14 9 -27
-7z"/>
<path d="M5211 6118 c-6 -13 -9 -15 -7 -5 3 9 1 17 -4 17 -16 0 -11 -40 5 -46
13 -5 13 -8 0 -20 -14 -15 -10 -44 6 -44 5 0 9 -15 9 -32 0 -37 13 -63 31 -63
6 0 19 -11 27 -25 11 -18 12 -21 2 -12 -17 14 -30 16 -30 3 0 -5 9 -13 20 -16
11 -3 20 -13 20 -21 0 -8 8 -14 18 -15 13 0 12 -2 -5 -9 -13 -5 -23 -13 -23
-18 0 -15 46 -48 60 -44 8 3 4 -5 -10 -17 -24 -22 -24 -22 -3 -18 16 4 20 1
16 -11 -5 -11 -3 -13 8 -7 8 4 11 5 7 0 -4 -4 2 -16 14 -27 12 -10 19 -21 15
-24 -3 -3 -15 4 -27 16 -12 12 -24 19 -27 17 -7 -8 21 -47 34 -47 7 0 13 -7
13 -15 0 -22 92 -88 101 -73 4 7 10 10 13 7 3 -2 1 -10 -3 -18 -8 -13 -34 -4
-83 31 -24 17 -35 1 -12 -18 10 -8 13 -12 5 -8 -9 4 -12 3 -7 -4 4 -6 13 -9
21 -5 10 3 15 -1 15 -12 0 -9 4 -14 8 -11 4 2 18 -11 31 -30 14 -19 27 -31 30
-26 3 5 13 11 23 15 12 4 17 22 20 69 5 79 2 88 -31 89 -22 0 -23 2 -7 8 14 5
20 18 21 49 1 24 -2 45 -6 48 -5 3 -9 -1 -10 -8 0 -11 -17 20 -24 45 -2 4 -4
10 -5 15 -1 4 -2 15 -1 25 1 9 -2 17 -8 17 -6 0 -8 -7 -5 -15 4 -8 1 -15 -5
-15 -6 0 -11 9 -11 19 0 28 -11 52 -21 45 -5 -3 -6 2 -3 10 3 9 -2 17 -15 21
-12 3 -21 11 -21 16 0 6 -4 7 -10 4 -5 -3 -10 -1 -10 4 0 14 17 14 25 1 10
-16 25 -12 19 5 -3 8 -9 14 -12 13 -20 -2 -28 4 -29 21 -1 10 -15 33 -32 50
-31 32 -39 51 -22 51 5 0 12 -6 14 -12 3 -7 6 -8 6 -3 1 19 -15 34 -43 39 -16
3 -31 8 -35 12 -3 4 2 4 12 1 13 -5 17 -3 14 5 -2 7 -15 12 -27 10 -13 -1 -27
2 -30 8 -4 6 -12 1 -19 -12z m82 -58 c3 -11 2 -20 -3 -20 -4 0 -10 9 -13 20
-3 11 -2 20 3 20 4 0 10 -9 13 -20z m37 -90 c0 -5 -2 -10 -4 -10 -3 0 -8 5
-11 10 -3 6 -1 10 4 10 6 0 11 -4 11 -10z m107 -116 c-3 -3 -12 -4 -19 -1 -8
3 -5 6 6 6 11 1 17 -2 13 -5z m-127 -55 c0 -6 -4 -7 -10 -4 -5 3 -10 11 -10
16 0 6 5 7 10 4 6 -3 10 -11 10 -16z m175 -49 c3 -5 1 -10 -4 -10 -6 0 -11 5
-11 10 0 6 2 10 4 10 3 0 8 -4 11 -10z"/>
<path d="M8745 6078 c-27 -16 -40 -33 -73 -98 -15 -30 -36 -67 -46 -82 -10
-15 -20 -40 -22 -55 -4 -23 1 -32 25 -46 39 -23 68 -64 90 -129 25 -73 38 -78
106 -45 30 15 62 27 70 27 17 0 21 13 39 145 8 55 17 109 22 119 5 13 4 17 -3
13 -8 -5 -10 5 -7 30 6 50 -7 65 -95 102 -83 35 -79 34 -106 19z"/>
<path d="M9716 6081 c-3 -5 3 -11 14 -14 13 -3 20 0 20 9 0 15 -26 19 -34 5z"/>
<path d="M5900 6065 c0 -6 9 -28 20 -49 10 -22 17 -42 15 -46 -3 -5 2 -10 10
-14 8 -3 15 -11 15 -18 0 -9 -3 -8 -10 2 -7 11 -10 11 -10 2 0 -7 10 -17 23
-22 12 -5 16 -9 10 -9 -7 -1 -13 -6 -13 -12 0 -5 4 -8 8 -5 4 2 6 -11 4 -31
-3 -23 -1 -33 6 -29 12 7 25 -10 29 -37 2 -10 12 -36 23 -57 11 -22 19 -45 18
-52 -2 -7 3 -12 10 -10 11 2 17 -16 13 -46 -1 -7 3 -11 10 -10 6 2 13 -3 15
-10 1 -7 0 -8 -3 -2 -5 12 -23 4 -23 -11 0 -5 6 -9 14 -9 22 0 38 -24 24 -38
-9 -9 -8 -12 4 -12 12 0 16 -8 14 -34 -2 -25 0 -33 10 -29 8 3 14 0 14 -6 0
-6 11 -16 25 -23 13 -6 22 -15 19 -20 -12 -19 34 -53 70 -52 22 1 37 -3 40
-12 4 -12 2 -12 -14 -4 -16 9 -18 8 -14 -5 4 -8 12 -15 19 -15 7 0 16 -7 19
-16 5 -14 4 -15 -9 -4 -13 11 -15 9 -13 -13 1 -14 6 -23 10 -21 4 3 8 -1 8 -8
0 -10 2 -10 9 1 6 10 10 10 16 1 12 -19 -10 -33 -33 -21 -26 14 -32 14 -32 0
0 -5 4 -8 9 -4 5 3 13 1 16 -5 4 -6 14 -10 23 -9 38 3 42 0 32 -27 -13 -34
-13 -36 9 -22 11 6 18 20 16 29 -3 13 1 16 13 12 11 -5 12 -8 4 -11 -10 -3
-10 -7 0 -20 10 -12 10 -14 1 -8 -8 4 -13 1 -13 -8 0 -9 -5 -16 -12 -16 -6 0
-8 -3 -5 -7 4 -3 1 -13 -6 -21 -8 -11 -8 -14 0 -9 6 4 14 3 18 -2 4 -7 15 -7
30 -1 20 8 25 6 25 -7 0 -15 2 -14 16 3 14 18 15 18 4 -5 -9 -17 -15 -20 -23
-12 -14 14 -30 14 -21 0 8 -14 -38 -8 -48 6 -5 6 -8 6 -8 -1 0 -12 30 -41 37
-36 5 4 63 -27 63 -34 0 -3 -9 -2 -20 1 -18 6 -19 4 -10 -19 6 -18 6 -26 -1
-26 -6 0 -7 -5 -3 -11 3 -6 16 7 30 31 13 23 21 47 17 53 -3 6 -1 7 6 3 13 -8
44 18 33 29 -4 4 -2 6 3 4 6 -1 17 0 25 3 8 4 23 9 33 12 21 7 22 17 1 42 -8
10 -13 13 -9 7 3 -7 2 -13 -3 -13 -5 0 -12 10 -15 21 -5 18 -11 21 -39 16 -18
-3 -27 -3 -20 0 17 7 15 30 -4 41 -12 6 -15 18 -12 36 3 15 3 24 0 21 -3 -3
-21 9 -39 27 -27 26 -30 34 -20 47 9 12 9 13 0 7 -12 -7 -18 5 -14 27 1 5 -7
11 -17 14 -11 2 -25 17 -33 31 -14 29 -14 29 -4 55 5 13 3 16 -8 11 -11 -4
-17 5 -22 35 -4 23 -11 39 -16 35 -5 -3 -9 -1 -9 5 0 6 -10 20 -22 32 -13 12
-16 19 -8 15 9 -5 9 -2 -2 7 -10 8 -15 17 -11 20 3 4 2 7 -4 7 -6 0 -13 10
-17 23 -3 12 -21 39 -39 60 -19 20 -32 37 -29 37 3 0 -4 10 -15 23 -11 12 -24
32 -28 45 -3 12 -11 20 -16 17 -5 -4 -9 1 -9 10 0 8 -9 23 -20 32 -11 10 -20
21 -20 26 0 5 -20 37 -45 72 -36 50 -50 63 -70 61 -14 0 -25 -6 -25 -11z m333
-582 c-7 -2 -13 -9 -13 -14 0 -6 6 -7 13 -3 9 6 8 3 -1 -8 -12 -15 -29 -15
-55 0 -11 5 32 30 53 30 10 0 11 -1 3 -5z m110 -82 c-2 -3 -16 8 -31 24 l-27
28 31 -24 c17 -13 30 -26 27 -28z m-82 14 c5 3 6 -1 2 -10 -5 -13 -7 -14 -14
-3 -5 7 -8 20 -8 28 1 11 3 10 6 -3 2 -9 9 -15 14 -12z m159 -139 c0 -2 -7 -7
-16 -10 -8 -3 -12 -2 -9 4 6 10 25 14 25 6z m6 -48 l19 -23 -25 20 c-14 11
-27 21 -29 22 -2 2 0 3 6 3 5 0 18 -10 29 -22z m104 -54 c0 -2 -7 -4 -15 -4
-8 0 -15 4 -15 10 0 5 7 7 15 4 8 -4 15 -8 15 -10z m-115 -12 c-3 -3 -11 0
-18 7 -9 10 -8 11 6 5 10 -3 15 -9 12 -12z m-21 -23 c-3 -5 -10 -7 -15 -3 -5
3 -7 10 -3 15 3 5 10 7 15 3 5 -3 7 -10 3 -15z"/>
<path d="M10210 6015 c0 -8 5 -15 10 -15 6 0 10 7 10 15 0 8 -4 15 -10 15 -5
0 -10 -7 -10 -15z"/>
<path d="M10245 6019 c-4 -6 -5 -12 -2 -15 2 -3 7 2 10 11 7 17 1 20 -8 4z"/>
<path d="M5891 6000 c0 -8 4 -22 9 -30 12 -18 12 -2 0 25 -6 13 -9 15 -9 5z"/>
<path d="M10210 5924 c0 -8 5 -12 10 -9 6 4 8 11 5 16 -9 14 -15 11 -15 -7z"/>
<path d="M5910 5921 c0 -6 4 -13 10 -16 6 -3 7 1 4 9 -7 18 -14 21 -14 7z"/>
<path d="M9006 5905 c-3 -8 -1 -15 5 -15 6 0 7 -4 4 -10 -3 -5 -2 -10 3 -10 5
0 12 -9 15 -20 4 -14 0 -20 -11 -20 -16 -1 -16 -2 0 -13 15 -12 15 -14 0 -25
-9 -6 -12 -11 -7 -11 23 3 29 -2 15 -11 -9 -6 -11 -10 -3 -10 7 0 10 -7 6 -17
-4 -10 -2 -14 4 -10 16 10 25 -21 13 -43 -12 -22 -13 -41 -2 -22 6 9 12 5 21
-14 11 -24 10 -26 -3 -14 -14 11 -16 9 -16 -14 0 -16 6 -26 14 -26 14 0 27
-22 25 -43 0 -7 -5 -1 -11 13 -7 16 -12 20 -15 12 -3 -7 4 -23 15 -35 23 -26
55 -117 41 -117 -5 0 -9 -11 -9 -25 0 -14 -6 -28 -13 -31 -7 -2 -12 -17 -11
-34 2 -30 -36 -123 -56 -135 -6 -4 -20 1 -31 11 -16 14 -23 15 -46 5 -24 -11
-28 -10 -49 16 -13 15 -23 34 -24 41 0 8 -6 12 -12 10 -15 -5 -23 -42 -43
-188 -8 -58 -21 -139 -29 -180 -8 -41 -17 -93 -21 -115 -3 -22 -8 -49 -11 -60
-3 -14 -1 -13 10 6 8 14 33 38 56 54 38 26 43 27 51 12 5 -9 26 -19 47 -23 20
-4 45 -11 54 -15 11 -6 18 -5 21 4 2 8 15 4 38 -14 46 -35 89 -80 89 -91 0 -5
6 -16 14 -24 8 -7 16 -19 18 -25 3 -9 10 -8 28 2 14 7 32 12 42 11 11 -2 21
11 32 45 32 96 55 261 43 313 -2 8 -18 59 -35 113 -18 54 -34 106 -35 115 -10
50 -60 216 -68 222 -6 4 -56 180 -105 369 -17 62 -48 110 -58 86z m164 -483
c0 -5 -7 -17 -15 -28 -14 -18 -14 -17 -4 9 12 27 19 34 19 19z"/>
<path d="M10187 5869 c7 -7 15 -10 18 -7 3 3 -2 9 -12 12 -14 6 -15 5 -6 -5z"/>
<path d="M12272 5835 c0 -16 2 -22 5 -12 2 9 2 23 0 30 -3 6 -5 -1 -5 -18z"/>
<path d="M6895 5820 c10 -11 20 -20 22 -20 2 0 -1 9 -7 20 -6 11 -16 20 -22
20 -6 0 -3 -9 7 -20z"/>
<path d="M9790 5818 c0 -4 4 -8 9 -8 6 0 12 4 15 8 3 5 -1 9 -9 9 -8 0 -15 -4
-15 -9z"/>
<path d="M10140 5820 c-5 -3 -5 -12 0 -20 8 -12 10 -11 10 5 0 15 2 17 9 6 9
-14 41 -9 41 8 0 9 -45 10 -60 1z"/>
<path d="M10145 5779 c-19 -7 -19 -8 2 -8 12 -1 23 -9 25 -18 3 -13 5 -11 9 8
6 27 -3 31 -36 18z"/>
<path d="M9970 5768 c0 -4 4 -8 9 -8 6 0 12 4 15 8 3 5 -1 9 -9 9 -8 0 -15 -4
-15 -9z"/>
<path d="M12206 5746 c-7 -27 1 -56 15 -56 5 0 9 -5 9 -11 0 -6 -8 -8 -17 -5
-12 4 -22 -2 -30 -19 -6 -14 -7 -25 -2 -25 5 0 9 5 9 11 0 5 10 9 23 7 23 -3
23 -6 19 82 -2 44 -17 53 -26 16z"/>
<path d="M10139 5755 c-1 -3 -2 -8 -3 -12 -1 -5 -5 -13 -9 -19 -4 -7 0 -15 10
-18 10 -4 14 -4 11 -1 -4 4 -3 18 2 31 6 15 6 24 0 24 -6 0 -11 -2 -11 -5z"/>
<path d="M9963 5723 c-3 -10 -8 -21 -10 -25 -2 -4 3 -5 11 -2 9 3 16 15 16 25
0 24 -9 25 -17 2z"/>
<path d="M7056 5721 c-3 -5 1 -11 9 -14 9 -4 12 -1 8 9 -6 16 -10 17 -17 5z"/>
<path d="M9025 5710 c4 -6 11 -8 16 -5 14 9 11 15 -7 15 -8 0 -12 -5 -9 -10z"/>
<path d="M10005 5682 c-5 -14 -7 -14 -15 -2 -6 9 -10 10 -10 3 0 -16 21 -28
29 -16 3 6 13 12 20 15 12 4 12 5 -1 11 -10 3 -19 -1 -23 -11z"/>
<path d="M6490 5671 c0 -5 5 -13 10 -16 6 -3 10 -2 10 4 0 5 -4 13 -10 16 -5
3 -10 2 -10 -4z"/>
<path d="M7423 5662 c-13 -2 -23 -10 -23 -18 0 -8 -5 -24 -12 -37 -21 -41 -25
-53 -33 -85 -3 -18 -11 -30 -16 -27 -9 6 -4 -37 13 -95 18 -66 17 -65 36 -41
51 67 134 131 169 131 10 0 31 -7 47 -15 26 -14 30 -14 42 2 7 10 14 21 14 26
0 4 11 12 24 18 21 10 23 16 19 53 -10 92 -31 111 -88 82 -15 -8 -33 -13 -39
-10 -21 8 -131 19 -153 16z"/>
<path d="M7275 5631 c-3 -6 3 -24 14 -41 l19 -32 -3 34 c-2 18 -3 36 -4 41 -1
10 -19 9 -26 -2z"/>
<path d="M7056 5605 c4 -8 10 -15 15 -15 4 0 6 7 3 15 -4 8 -10 15 -15 15 -4
0 -6 -7 -3 -15z"/>
<path d="M10814 5605 c-4 -8 -13 -15 -21 -15 -10 0 -13 -6 -9 -16 3 -8 2 -13
-3 -10 -7 5 -21 -15 -21 -30 0 -11 30 -2 47 14 10 9 13 13 6 8 -8 -5 -13 -4
-13 2 0 6 4 13 9 16 9 6 22 46 15 46 -3 0 -7 -7 -10 -15z"/>
<path d="M4515 5600 c3 -5 8 -10 11 -10 2 0 4 5 4 10 0 6 -5 10 -11 10 -5 0
-7 -4 -4 -10z"/>
<path d="M10016 5593 c-6 -14 -5 -15 5 -6 7 7 10 15 7 18 -3 3 -9 -2 -12 -12z"/>
<path d="M12160 5594 c0 -9 5 -14 12 -12 18 6 21 28 4 28 -9 0 -16 -7 -16 -16z"/>
<path d="M9993 5547 c0 -8 6 -14 14 -14 9 0 10 4 2 14 -6 7 -12 13 -14 13 -1
0 -2 -6 -2 -13z"/>
<path d="M6521 5524 c0 -11 3 -14 6 -6 3 7 2 16 -1 19 -3 4 -6 -2 -5 -13z"/>
<path d="M10739 5499 c-12 -24 -41 -161 -34 -167 3 -3 5 2 5 12 0 10 6 16 17
14 11 -2 19 5 21 17 2 16 1 17 -7 5 -6 -8 -11 -11 -11 -7 0 5 12 24 27 43 22
29 24 37 12 45 -12 7 -11 9 3 9 9 0 20 5 24 12 5 7 3 8 -6 3 -9 -5 -10 -2 -6
12 5 14 1 19 -15 19 -11 0 -25 -8 -30 -17z"/>
<path d="M5440 5490 c6 -11 15 -20 20 -20 14 0 12 9 -4 26 -21 20 -28 17 -16
-6z"/>
<path d="M12130 5490 c0 -11 5 -20 10 -20 6 0 10 9 10 20 0 11 -4 20 -10 20
-5 0 -10 -9 -10 -20z"/>
<path d="M4560 5491 c0 -6 4 -13 10 -16 6 -3 7 1 4 9 -7 18 -14 21 -14 7z"/>
<path d="M7697 5493 c-12 -11 -8 -23 9 -23 9 0 25 -23 40 -55 14 -30 29 -55
33 -55 5 0 -8 32 -27 70 -34 68 -42 77 -55 63z"/>
<path d="M7316 5425 c-3 -8 -1 -15 4 -15 6 0 10 7 10 15 0 8 -2 15 -4 15 -2 0
-6 -7 -10 -15z"/>
<path d="M7174 5378 c3 -14 3 -28 -2 -31 -4 -2 -1 -2 5 -1 7 2 16 -9 19 -24 8
-31 32 -62 48 -62 6 0 5 4 -3 9 -10 6 -10 10 -1 16 8 5 5 11 -9 21 -11 8 -19
20 -17 27 1 6 1 8 -2 3 -2 -5 -13 9 -24 30 -14 29 -18 32 -14 12z"/>
<path d="M7137 5353 c3 -7 6 -13 8 -13 2 0 5 6 8 13 3 8 -1 14 -8 14 -7 0 -11
-6 -8 -14z"/>
<path d="M6215 5340 c10 -11 20 -20 22 -20 2 0 -2 9 -9 20 -7 11 -17 20 -22
20 -5 0 -1 -9 9 -20z"/>
<path d="M6405 5350 c3 -5 14 -10 23 -10 15 0 15 2 2 10 -20 13 -33 13 -25 0z"/>
<path d="M6253 5333 c9 -9 20 -13 24 -9 4 4 1 11 -7 16 -25 16 -35 11 -17 -7z"/>
<path d="M7786 5342 c-10 -16 1 -32 22 -32 11 0 13 3 6 8 -6 4 -13 14 -16 22
-3 10 -6 11 -12 2z"/>
<path d="M10718 5318 c-10 -10 -14 -18 -9 -18 10 0 36 29 30 34 -2 1 -12 -6
-21 -16z"/>
<path d="M7828 5253 c-3 -11 0 -27 7 -37 11 -14 13 -15 19 -1 3 10 -1 15 -12
15 -12 0 -13 3 -5 8 7 4 9 13 4 21 -6 9 -9 8 -13 -6z"/>
<path d="M6200 5245 c7 -9 15 -13 17 -11 7 7 -7 26 -19 26 -6 0 -6 -6 2 -15z"/>
<path d="M6260 5230 c0 -5 5 -10 11 -10 5 0 7 5 4 10 -3 6 -8 10 -11 10 -2 0
-4 -4 -4 -10z"/>
<path d="M6295 5200 c3 -5 8 -10 11 -10 2 0 4 5 4 10 0 6 -5 10 -11 10 -5 0
-7 -4 -4 -10z"/>
<path d="M10020 5196 c0 -2 7 -9 15 -16 9 -7 15 -8 15 -2 0 5 -7 12 -15 16 -8
3 -15 4 -15 2z"/>
<path d="M7850 5174 c0 -8 5 -12 10 -9 6 3 10 -1 10 -9 0 -16 12 -21 23 -10 6
6 -23 44 -35 44 -5 0 -8 -7 -8 -16z"/>
<path d="M6250 5176 c0 -2 8 -10 18 -17 15 -13 16 -12 3 4 -13 16 -21 21 -21
13z"/>
<path d="M6300 5170 c0 -5 5 -10 11 -10 5 0 7 5 4 10 -3 6 -8 10 -11 10 -2 0
-4 -4 -4 -10z"/>
<path d="M10042 5110 c0 -14 2 -19 5 -12 2 6 2 18 0 25 -3 6 -5 1 -5 -13z"/>
<path d="M7886 5095 c3 -7 12 -16 19 -19 9 -3 12 0 9 9 -3 7 -12 16 -19 19 -9
3 -12 0 -9 -9z"/>
<path d="M7926 5087 c3 -10 9 -15 12 -12 3 3 0 11 -7 18 -10 9 -11 8 -5 -6z"/>
<path d="M6236 5054 c-3 -8 -2 -13 3 -9 5 3 12 -1 14 -7 4 -8 6 -7 6 4 1 23
-15 32 -23 12z"/>
<path d="M7900 5050 c6 -11 18 -20 28 -20 15 0 15 -2 2 -11 -12 -8 -10 -9 8
-4 19 6 22 3 22 -25 0 -42 -16 -70 -40 -70 -11 0 -20 -6 -21 -12 -1 -25 -64
-66 -104 -69 -27 -3 -46 -11 -58 -26 -22 -28 -33 -23 -46 20 -7 22 -9 -26 -5
-158 5 -180 7 -191 27 -207 40 -32 58 -53 115 -128 66 -89 116 -140 138 -140
39 0 77 43 88 101 10 54 62 174 88 205 10 11 29 41 41 65 l23 44 -45 85 c-25
47 -80 148 -123 225 -68 122 -84 145 -79 113 0 -5 -3 -8 -9 -8 -5 0 -10 5 -10
11 0 5 -4 7 -10 4 -5 -3 -10 -2 -10 3 0 6 -7 12 -15 16 -13 4 -14 2 -5 -14z"/>
<path d="M6360 5048 c0 -14 15 -16 27 -3 10 11 9 13 -7 12 -11 -1 -20 -5 -20
-9z"/>
<path d="M7924 4988 c-4 -6 -3 -8 4 -4 6 3 12 -3 15 -16 4 -20 4 -19 6 5 1 28
-12 36 -25 15z"/>
<path d="M5470 4609 c0 -5 5 -7 10 -4 6 3 10 8 10 11 0 2 -4 4 -10 4 -5 0 -10
-5 -10 -11z"/>
<path d="M5515 4523 c3 -8 5 -17 5 -19 0 -2 4 -4 8 -4 4 0 8 8 8 18 0 10 -6
19 -14 19 -7 0 -10 -7 -7 -14z"/>
<path d="M4487 4409 c4 -13 8 -18 11 -10 2 7 -1 18 -6 23 -8 8 -9 4 -5 -13z"/>
<path d="M6654 3690 c-17 -62 -11 -130 15 -170 13 -19 20 -27 17 -17 -3 11 -3
24 1 30 4 7 8 18 8 27 1 8 5 26 9 39 6 18 5 22 -4 16 -10 -6 -12 0 -7 24 5 23
3 30 -5 25 -7 -4 -8 -3 -4 4 4 6 1 23 -6 37 l-14 25 -10 -40z"/>
<path d="M6917 3088 c-2 -7 2 -26 10 -42 8 -15 13 -36 10 -46 -2 -10 0 -24 5
-31 8 -11 9 -10 5 3 -3 9 0 19 7 21 9 4 12 -5 9 -33 -3 -29 6 -58 37 -125 23
-48 43 -85 46 -83 2 2 5 32 8 66 4 54 1 71 -26 127 -16 36 -35 65 -41 65 -6 0
-7 3 -4 6 3 4 2 15 -4 26 -8 15 -13 17 -24 8 -11 -9 -16 -7 -25 9 -6 12 -7 21
-1 21 5 0 12 -6 14 -12 4 -10 6 -10 6 0 1 7 6 10 13 6 7 -4 8 -3 4 5 -4 6 -12
9 -17 6 -5 -4 -9 -1 -9 4 0 15 -17 14 -23 -1z m49 -75 c-10 -10 -19 5 -10 18
6 11 8 11 12 0 2 -7 1 -15 -2 -18z"/>
<path d="M9412 3010 c0 -14 2 -19 5 -12 2 6 2 18 0 25 -3 6 -5 1 -5 -13z"/>
<path d="M10121 2994 c0 -11 3 -14 6 -6 3 7 2 16 -1 19 -3 4 -6 -2 -5 -13z"/>
<path d="M10107 2960 c-28 -80 -38 -127 -42 -195 l-5 -80 15 45 c19 56 48 217
42 233 -3 8 -6 7 -10 -3z"/>
</g>
</svg>
